<svg id="mermaid-svg" width="100%" xmlns="http://www.w3.org/2000/svg" class="erDiagram" style="max-width: 653.78125px;" viewBox="0 0 653.78125 987.5" role="graphics-document document" aria-roledescription="er" xmlns:xlink="http://www.w3.org/1999/xlink"><style xmlns="http://www.w3.org/1999/xhtml">@import url("https://cdnjs.cloudflare.com/ajax/libs/font-awesome/6.7.2/css/all.min.css");</style><style>#mermaid-svg{font-family:"trebuchet ms",verdana,arial,sans-serif;font-size:16px;fill:#333;}@keyframes edge-animation-frame{from{stroke-dashoffset:0;}}@keyframes dash{to{stroke-dashoffset:0;}}#mermaid-svg .edge-animation-slow{stroke-dasharray:9,5!important;stroke-dashoffset:900;animation:dash 50s linear infinite;stroke-linecap:round;}#mermaid-svg .edge-animation-fast{stroke-dasharray:9,5!important;stroke-dashoffset:900;animation:dash 20s linear infinite;stroke-linecap:round;}#mermaid-svg .error-icon{fill:#552222;}#mermaid-svg .error-text{fill:#552222;stroke:#552222;}#mermaid-svg .edge-thickness-normal{stroke-width:1px;}#mermaid-svg .edge-thickness-thick{stroke-width:3.5px;}#mermaid-svg .edge-pattern-solid{stroke-dasharray:0;}#mermaid-svg .edge-thickness-invisible{stroke-width:0;fill:none;}#mermaid-svg .edge-pattern-dashed{stroke-dasharray:3;}#mermaid-svg .edge-pattern-dotted{stroke-dasharray:2;}#mermaid-svg .marker{fill:#333333;stroke:#333333;}#mermaid-svg .marker.cross{stroke:#333333;}#mermaid-svg svg{font-family:"trebuchet ms",verdana,arial,sans-serif;font-size:16px;}#mermaid-svg p{margin:0;}#mermaid-svg .entityBox{fill:#ECECFF;stroke:#9370DB;}#mermaid-svg .relationshipLabelBox{fill:hsl(80, 100%, 96.2745098039%);opacity:0.7;background-color:hsl(80, 100%, 96.2745098039%);}#mermaid-svg .relationshipLabelBox rect{opacity:0.5;}#mermaid-svg .labelBkg{background-color:rgba(248.6666666666, 255, 235.9999999999, 0.5);}#mermaid-svg .edgeLabel{background-color:rgba(232,232,232, 0.8);}#mermaid-svg .edgeLabel .label rect{fill:rgba(232,232,232, 0.8);}#mermaid-svg .edgeLabel .label text{fill:#333;}#mermaid-svg .edgeLabel .label{fill:#9370DB;font-size:14px;}#mermaid-svg .label{font-family:"trebuchet ms",verdana,arial,sans-serif;color:#333;}#mermaid-svg .edge-pattern-dashed{stroke-dasharray:8,8;}#mermaid-svg .node rect,#mermaid-svg .node circle,#mermaid-svg .node ellipse,#mermaid-svg .node polygon{fill:#ECECFF;stroke:#9370DB;stroke-width:1px;}#mermaid-svg .relationshipLine{stroke:#333333;stroke-width:1px;fill:none;}#mermaid-svg .marker{fill:none!important;stroke:#333333!important;stroke-width:1;}#mermaid-svg [data-look=neo].labelBkg{background-color:rgba(248.6666666666, 255, 235.9999999999, 0.5);}#mermaid-svg .node .neo-node{stroke:#9370DB;}#mermaid-svg [data-look="neo"].node rect,#mermaid-svg [data-look="neo"].cluster rect,#mermaid-svg [data-look="neo"].node polygon{stroke:#9370DB;filter:drop-shadow(1px 2px 2px rgba(185, 185, 185, 1));}#mermaid-svg [data-look="neo"].swimlane.cluster rect{filter:none;}#mermaid-svg [data-look="neo"].node path{stroke:#9370DB;stroke-width:1px;}#mermaid-svg [data-look="neo"].node .outer-path{filter:drop-shadow(1px 2px 2px rgba(185, 185, 185, 1));}#mermaid-svg [data-look="neo"].node .neo-line path{stroke:#9370DB;filter:none;}#mermaid-svg [data-look="neo"].node circle{stroke:#9370DB;filter:drop-shadow(1px 2px 2px rgba(185, 185, 185, 1));}#mermaid-svg [data-look="neo"].node circle .state-start{fill:#000000;}#mermaid-svg [data-look="neo"].icon-shape .icon{fill:#9370DB;filter:drop-shadow(1px 2px 2px rgba(185, 185, 185, 1));}#mermaid-svg [data-look="neo"].icon-shape .icon-neo path{stroke:#9370DB;filter:drop-shadow(1px 2px 2px rgba(185, 185, 185, 1));}#mermaid-svg :root{--mermaid-font-family:"trebuchet ms",verdana,arial,sans-serif;}</style><g><defs><marker id="mermaid-svg_er-onlyOneStart" class="marker onlyOne er" refX="0" refY="9" markerWidth="18" markerHeight="18" orient="auto"><path d="M9,0 L9,18 M15,0 L15,18"/></marker></defs><defs><marker id="mermaid-svg_er-onlyOneEnd" class="marker onlyOne er" refX="18" refY="9" markerWidth="18" markerHeight="18" orient="auto"><path d="M3,0 L3,18 M9,0 L9,18"/></marker></defs><defs><marker id="mermaid-svg_er-zeroOrOneStart" class="marker zeroOrOne er" refX="0" refY="9" markerWidth="30" markerHeight="18" orient="auto"><circle fill="white" cx="21" cy="9" r="6"/><path d="M9,0 L9,18"/></marker></defs><defs><marker id="mermaid-svg_er-zeroOrOneEnd" class="marker zeroOrOne er" refX="30" refY="9" markerWidth="30" markerHeight="18" orient="auto"><circle fill="white" cx="9" cy="9" r="6"/><path d="M21,0 L21,18"/></marker></defs><defs><marker id="mermaid-svg_er-oneOrMoreStart" class="marker oneOrMore er" refX="18" refY="18" markerWidth="45" markerHeight="36" orient="auto"><path d="M0,18 Q 18,0 36,18 Q 18,36 0,18 M42,9 L42,27"/></marker></defs><defs><marker id="mermaid-svg_er-oneOrMoreEnd" class="marker oneOrMore er" refX="27" refY="18" markerWidth="45" markerHeight="36" orient="auto"><path d="M3,9 L3,27 M9,18 Q27,0 45,18 Q27,36 9,18"/></marker></defs><defs><marker id="mermaid-svg_er-zeroOrMoreStart" class="marker zeroOrMore er" refX="18" refY="18" markerWidth="57" markerHeight="36" orient="auto"><circle fill="white" cx="48" cy="18" r="6"/><path d="M0,18 Q18,0 36,18 Q18,36 0,18"/></marker></defs><defs><marker id="mermaid-svg_er-zeroOrMoreEnd" class="marker zeroOrMore er" refX="39" refY="18" markerWidth="57" markerHeight="36" orient="auto"><circle fill="white" cx="9" cy="18" r="6"/><path d="M21,18 Q39,0 57,18 Q39,36 21,18"/></marker></defs><g class="root"><g class="clusters"/><g class="edgePaths"><path d="M130,264.5L130,272.917C130,281.333,130,298.167,130,318.563C130,338.958,130,362.917,130,374.896L130,386.875" id="mermaid-svg-id_entity-CUSTOMER-0_entity-ORDER-3_0" class=" edge-thickness-normal edge-pattern-solid relationshipLine" style="undefined;;;undefined" data-edge="true" data-et="edge" data-id="id_entity-CUSTOMER-0_entity-ORDER-3_0" data-points="W3sieCI6MTMwLCJ5IjoyNjQuNX0seyJ4IjoxMzAsInkiOjMxNX0seyJ4IjoxMzAsInkiOjM4Ni44NzV9XQ==" data-look="classic" marker-start="url(#mermaid-svg_er-onlyOneStart)" marker-end="url(#mermaid-svg_er-zeroOrMoreEnd)"/><path d="M130,600.625L130,612.604C130,624.583,130,648.542,141.632,671.213C153.263,693.885,176.526,715.271,188.158,725.963L199.789,736.656" id="mermaid-svg-id_entity-ORDER-3_entity-ORDER_ITEM-4_1" class=" edge-thickness-normal edge-pattern-solid relationshipLine" style="undefined;;;undefined" data-edge="true" data-et="edge" data-id="id_entity-ORDER-3_entity-ORDER_ITEM-4_1" data-points="W3sieCI6MTMwLCJ5Ijo2MDAuNjI1fSx7IngiOjEzMCwieSI6NjcyLjV9LHsieCI6MTk5Ljc4OTA2MjUsInkiOjczNi42NTU4MDE3NTk4MTM2fV0=" data-look="classic" marker-start="url(#mermaid-svg_er-onlyOneStart)" marker-end="url(#mermaid-svg_er-oneOrMoreEnd)"/><path d="M518.891,622L518.891,630.417C518.891,638.833,518.891,655.667,507.259,674.776C495.628,693.885,472.365,715.271,460.733,725.963L449.102,736.656" id="mermaid-svg-id_entity-PRODUCT-2_entity-ORDER_ITEM-4_2" class=" edge-thickness-normal edge-pattern-solid relationshipLine" style="undefined;;;undefined" data-edge="true" data-et="edge" data-id="id_entity-PRODUCT-2_entity-ORDER_ITEM-4_2" data-points="W3sieCI6NTE4Ljg5MDYyNSwieSI6NjIyfSx7IngiOjUxOC44OTA2MjUsInkiOjY3Mi41fSx7IngiOjQ0OS4xMDE1NjI1LCJ5Ijo3MzYuNjU1ODAxNzU5ODEzNn1d" data-look="classic" marker-start="url(#mermaid-svg_er-onlyOneStart)" marker-end="url(#mermaid-svg_er-zeroOrMoreEnd)"/><path d="M518.891,200.375L518.891,219.479C518.891,238.583,518.891,276.792,518.891,304.313C518.891,331.833,518.891,348.667,518.891,357.083L518.891,365.5" id="mermaid-svg-id_entity-CATEGORY-1_entity-PRODUCT-2_3" class=" edge-thickness-normal edge-pattern-solid relationshipLine" style="undefined;;;undefined" data-edge="true" data-et="edge" data-id="id_entity-CATEGORY-1_entity-PRODUCT-2_3" data-points="W3sieCI6NTE4Ljg5MDYyNSwieSI6MjAwLjM3NX0seyJ4Ijo1MTguODkwNjI1LCJ5IjozMTV9LHsieCI6NTE4Ljg5MDYyNSwieSI6MzY1LjV9XQ==" data-look="classic" marker-start="url(#mermaid-svg_er-onlyOneStart)" marker-end="url(#mermaid-svg_er-zeroOrMoreEnd)"/></g><g class="edgeLabels"><g class="edgeLabel" transform="translate(130, 315)"><g class="label" data-id="id_entity-CUSTOMER-0_entity-ORDER-3_0" transform="translate(-20.234375, -10.5)"><foreignObject width="40.46875" height="21"><div xmlns="http://www.w3.org/1999/xhtml" class="labelBkg" style="display: table-cell; white-space: nowrap; line-height: 1.5; max-width: 200px; text-align: center;"><span class="edgeLabel "><p>places</p></span></div></foreignObject></g></g><g class="edgeLabel" transform="translate(130, 672.5)"><g class="label" data-id="id_entity-ORDER-3_entity-ORDER_ITEM-4_1" transform="translate(-26.078125, -10.5)"><foreignObject width="52.15625" height="21"><div xmlns="http://www.w3.org/1999/xhtml" class="labelBkg" style="display: table-cell; white-space: nowrap; line-height: 1.5; max-width: 200px; text-align: center;"><span class="edgeLabel "><p>contains</p></span></div></foreignObject></g></g><g class="edgeLabel" transform="translate(518.890625, 672.5)"><g class="label" data-id="id_entity-PRODUCT-2_entity-ORDER_ITEM-4_2" transform="translate(-35.421875, -10.5)"><foreignObject width="70.84375" height="21"><div xmlns="http://www.w3.org/1999/xhtml" class="labelBkg" style="display: table-cell; white-space: nowrap; line-height: 1.5; max-width: 200px; text-align: center;"><span class="edgeLabel "><p>included_in</p></span></div></foreignObject></g></g><g class="edgeLabel" transform="translate(518.890625, 315)"><g class="label" data-id="id_entity-CATEGORY-1_entity-PRODUCT-2_3" transform="translate(-30.3515625, -10.5)"><foreignObject width="60.703125" height="21"><div xmlns="http://www.w3.org/1999/xhtml" class="labelBkg" style="display: table-cell; white-space: nowrap; line-height: 1.5; max-width: 200px; text-align: center;"><span class="edgeLabel "><p>organizes</p></span></div></foreignObject></g></g></g><g class="nodes"><g class="node default " id="mermaid-svg-entity-CUSTOMER-0" data-look="classic" transform="translate(130, 136.25)"><g class="outer-path" style=""><path d="M-111.3125 -128.25 L111.3125 -128.25 L111.3125 128.25 L-111.3125 128.25" stroke="none" stroke-width="0" fill="#ECECFF"/><path d="M-111.3125 -128.25 C-50.35959505589359 -128.25, 10.593309888212815 -128.25, 111.3125 -128.25 M-111.3125 -128.25 C-23.465454191069554 -128.25, 64.38159161786089 -128.25, 111.3125 -128.25 M111.3125 -128.25 C111.3125 -38.607212301231456, 111.3125 51.03557539753709, 111.3125 128.25 M111.3125 -128.25 C111.3125 -67.98371950099303, 111.3125 -7.717439001986051, 111.3125 128.25 M111.3125 128.25 C24.893670916563934 128.25, -61.52515816687213 128.25, -111.3125 128.25 M111.3125 128.25 C59.178478118911045 128.25, 7.044456237822089 128.25, -111.3125 128.25 M-111.3125 128.25 C-111.3125 29.270456498203743, -111.3125 -69.70908700359251, -111.3125 -128.25 M-111.3125 128.25 C-111.3125 44.771801126042845, -111.3125 -38.70639774791431, -111.3125 -128.25" stroke="#9370DB" stroke-width="1.3" fill="none" stroke-dasharray="0 0"/></g><g style="" class="row-rect-odd"><path d="M-111.3125 -85.5 L111.3125 -85.5 L111.3125 -42.75 L-111.3125 -42.75" stroke="none" stroke-width="0" fill="hsl(240, 100%, 100%)"/><path d="M-111.3125 -85.5 C-63.989005989502104 -85.5, -16.665511979004208 -85.5, 111.3125 -85.5 M-111.3125 -85.5 C-25.65350570293731 -85.5, 60.00548859412538 -85.5, 111.3125 -85.5 M111.3125 -85.5 C111.3125 -70.27616901593561, 111.3125 -55.05233803187121, 111.3125 -42.75 M111.3125 -85.5 C111.3125 -69.8866417838973, 111.3125 -54.27328356779461, 111.3125 -42.75 M111.3125 -42.75 C34.18655590786605 -42.75, -42.9393881842679 -42.75, -111.3125 -42.75 M111.3125 -42.75 C62.69899875327325 -42.75, 14.085497506546503 -42.75, -111.3125 -42.75 M-111.3125 -42.75 C-111.3125 -52.953171698575815, -111.3125 -63.15634339715162, -111.3125 -85.5 M-111.3125 -42.75 C-111.3125 -51.51037835112413, -111.3125 -60.270756702248256, -111.3125 -85.5" stroke="#9370DB" stroke-width="1.3" fill="none" stroke-dasharray="0 0"/></g><g style="" class="row-rect-even"><path d="M-111.3125 -42.75 L111.3125 -42.75 L111.3125 0 L-111.3125 0" stroke="none" stroke-width="0" fill="hsl(240, 100%, 97.2745098039%)"/><path d="M-111.3125 -42.75 C-63.05937280739809 -42.75, -14.806245614796183 -42.75, 111.3125 -42.75 M-111.3125 -42.75 C-38.8972570500308 -42.75, 33.517985899938395 -42.75, 111.3125 -42.75 M111.3125 -42.75 C111.3125 -27.010378393435534, 111.3125 -11.270756786871068, 111.3125 0 M111.3125 -42.75 C111.3125 -31.942951243378047, 111.3125 -21.13590248675609, 111.3125 0 M111.3125 0 C45.878674040636525 0, -19.55515191872695 0, -111.3125 0 M111.3125 0 C44.36647533647104 0, -22.57954932705792 0, -111.3125 0 M-111.3125 0 C-111.3125 -12.549930572866915, -111.3125 -25.09986114573383, -111.3125 -42.75 M-111.3125 0 C-111.3125 -12.832703143375854, -111.3125 -25.665406286751708, -111.3125 -42.75" stroke="#9370DB" stroke-width="1.3" fill="none" stroke-dasharray="0 0"/></g><g style="" class="row-rect-odd"><path d="M-111.3125 0 L111.3125 0 L111.3125 42.75 L-111.3125 42.75" stroke="none" stroke-width="0" fill="hsl(240, 100%, 100%)"/><path d="M-111.3125 0 C-28.855199135324668 0, 53.602101729350665 0, 111.3125 0 M-111.3125 0 C-58.10305863230705 0, -4.893617264614093 0, 111.3125 0 M111.3125 0 C111.3125 9.737726400390768, 111.3125 19.475452800781536, 111.3125 42.75 M111.3125 0 C111.3125 11.455182062463084, 111.3125 22.91036412492617, 111.3125 42.75 M111.3125 42.75 C53.181221854655355 42.75, -4.9500562906892895 42.75, -111.3125 42.75 M111.3125 42.75 C64.1072183185517 42.75, 16.90193663710339 42.75, -111.3125 42.75 M-111.3125 42.75 C-111.3125 25.855313810909948, -111.3125 8.960627621819896, -111.3125 0 M-111.3125 42.75 C-111.3125 31.67004803563966, -111.3125 20.590096071279316, -111.3125 0" stroke="#9370DB" stroke-width="1.3" fill="none" stroke-dasharray="0 0"/></g><g style="" class="row-rect-even"><path d="M-111.3125 42.75 L111.3125 42.75 L111.3125 85.5 L-111.3125 85.5" stroke="none" stroke-width="0" fill="hsl(240, 100%, 97.2745098039%)"/><path d="M-111.3125 42.75 C-27.476219751814227 42.75, 56.360060496371545 42.75, 111.3125 42.75 M-111.3125 42.75 C-32.87508214657828 42.75, 45.56233570684344 42.75, 111.3125 42.75 M111.3125 42.75 C111.3125 54.777558077825006, 111.3125 66.80511615565001, 111.3125 85.5 M111.3125 42.75 C111.3125 54.42845373797032, 111.3125 66.10690747594064, 111.3125 85.5 M111.3125 85.5 C50.698500811892885 85.5, -9.91549837621423 85.5, -111.3125 85.5 M111.3125 85.5 C63.45521646159824 85.5, 15.597932923196481 85.5, -111.3125 85.5 M-111.3125 85.5 C-111.3125 76.15766674347964, -111.3125 66.81533348695928, -111.3125 42.75 M-111.3125 85.5 C-111.3125 76.6367957096078, -111.3125 67.77359141921558, -111.3125 42.75" stroke="#9370DB" stroke-width="1.3" fill="none" stroke-dasharray="0 0"/></g><g style="" class="row-rect-odd"><path d="M-111.3125 85.5 L111.3125 85.5 L111.3125 128.25 L-111.3125 128.25" stroke="none" stroke-width="0" fill="hsl(240, 100%, 100%)"/><path d="M-111.3125 85.5 C-23.473304962942905 85.5, 64.36589007411419 85.5, 111.3125 85.5 M-111.3125 85.5 C-50.77939674041537 85.5, 9.753706519169256 85.5, 111.3125 85.5 M111.3125 85.5 C111.3125 95.31145917079519, 111.3125 105.12291834159038, 111.3125 128.25 M111.3125 85.5 C111.3125 97.35192077670071, 111.3125 109.20384155340142, 111.3125 128.25 M111.3125 128.25 C47.55315925179108 128.25, -16.20618149641784 128.25, -111.3125 128.25 M111.3125 128.25 C38.19316327186529 128.25, -34.926173456269424 128.25, -111.3125 128.25 M-111.3125 128.25 C-111.3125 114.45016908871251, -111.3125 100.65033817742504, -111.3125 85.5 M-111.3125 128.25 C-111.3125 114.68068679337067, -111.3125 101.11137358674134, -111.3125 85.5" stroke="#9370DB" stroke-width="1.3" fill="none" stroke-dasharray="0 0"/></g><g class="label name" transform="translate(-45.6328125, -118.875)" style=""><foreignObject width="91.265625" height="24"><div xmlns="http://www.w3.org/1999/xhtml" style="display: table-cell; white-space: nowrap; line-height: 1.5; max-width: 187px; text-align: start;"><span class="nodeLabel "><p>CUSTOMER</p></span></div></foreignObject></g><g class="label attribute-type" transform="translate(-98.8125, -76.125)" style=""><foreignObject width="16.90625" height="24"><div xmlns="http://www.w3.org/1999/xhtml" style="display: table-cell; white-space: nowrap; line-height: 1.5; max-width: 117px; text-align: start;"><span class="nodeLabel "><p>int</p></span></div></foreignObject></g><g class="label attribute-name" transform="translate(-34.6875, -76.125)" style=""><foreignObject width="87.15625" height="24"><div xmlns="http://www.w3.org/1999/xhtml" style="display: table-cell; white-space: nowrap; line-height: 1.5; max-width: 187px; text-align: start;"><span class="nodeLabel "><p>customer_id</p></span></div></foreignObject></g><g class="label attribute-keys" transform="translate(77.46875, -76.125)" style=""><foreignObject width="21.34375" height="24"><div xmlns="http://www.w3.org/1999/xhtml" style="display: table-cell; white-space: nowrap; line-height: 1.5; max-width: 121px; text-align: start;"><span class="nodeLabel "><p>PK</p></span></div></foreignObject></g><g class="label attribute-comment" transform="translate(123.8125, -76.125)" style=""><foreignObject width="0" height="0"><div xmlns="http://www.w3.org/1999/xhtml" style="display: table-cell; white-space: nowrap; line-height: 1.5; max-width: 100px; text-align: start;"><span class="nodeLabel "></span></div></foreignObject></g><g class="label attribute-type" transform="translate(-98.8125, -33.375)" style=""><foreignObject width="39.125" height="24"><div xmlns="http://www.w3.org/1999/xhtml" style="display: table-cell; white-space: nowrap; line-height: 1.5; max-width: 136px; text-align: start;"><span class="nodeLabel "><p>string</p></span></div></foreignObject></g><g class="label attribute-name" transform="translate(-34.6875, -33.375)" style=""><foreignObject width="74.703125" height="24"><div xmlns="http://www.w3.org/1999/xhtml" style="display: table-cell; white-space: nowrap; line-height: 1.5; max-width: 175px; text-align: start;"><span class="nodeLabel "><p>first_name</p></span></div></foreignObject></g><g class="label attribute-keys" transform="translate(77.46875, -33.375)" style=""><foreignObject width="0" height="0"><div xmlns="http://www.w3.org/1999/xhtml" style="display: table-cell; white-space: nowrap; line-height: 1.5; max-width: 100px; text-align: start;"><span class="nodeLabel "></span></div></foreignObject></g><g class="label attribute-comment" transform="translate(123.8125, -33.375)" style=""><foreignObject width="0" height="0"><div xmlns="http://www.w3.org/1999/xhtml" style="display: table-cell; white-space: nowrap; line-height: 1.5; max-width: 100px; text-align: start;"><span class="nodeLabel "></span></div></foreignObject></g><g class="label attribute-type" transform="translate(-98.8125, 9.375)" style=""><foreignObject width="39.125" height="24"><div xmlns="http://www.w3.org/1999/xhtml" style="display: table-cell; white-space: nowrap; line-height: 1.5; max-width: 136px; text-align: start;"><span class="nodeLabel "><p>string</p></span></div></foreignObject></g><g class="label attribute-name" transform="translate(-34.6875, 9.375)" style=""><foreignObject width="73.828125" height="24"><div xmlns="http://www.w3.org/1999/xhtml" style="display: table-cell; white-space: nowrap; line-height: 1.5; max-width: 174px; text-align: start;"><span class="nodeLabel "><p>last_name</p></span></div></foreignObject></g><g class="label attribute-keys" transform="translate(77.46875, 9.375)" style=""><foreignObject width="0" height="0"><div xmlns="http://www.w3.org/1999/xhtml" style="display: table-cell; white-space: nowrap; line-height: 1.5; max-width: 100px; text-align: start;"><span class="nodeLabel "></span></div></foreignObject></g><g class="label attribute-comment" transform="translate(123.8125, 9.375)" style=""><foreignObject width="0" height="0"><div xmlns="http://www.w3.org/1999/xhtml" style="display: table-cell; white-space: nowrap; line-height: 1.5; max-width: 100px; text-align: start;"><span class="nodeLabel "></span></div></foreignObject></g><g class="label attribute-type" transform="translate(-98.8125, 52.125)" style=""><foreignObject width="39.125" height="24"><div xmlns="http://www.w3.org/1999/xhtml" style="display: table-cell; white-space: nowrap; line-height: 1.5; max-width: 136px; text-align: start;"><span class="nodeLabel "><p>string</p></span></div></foreignObject></g><g class="label attribute-name" transform="translate(-34.6875, 52.125)" style=""><foreignObject width="38.234375" height="24"><div xmlns="http://www.w3.org/1999/xhtml" style="display: table-cell; white-space: nowrap; line-height: 1.5; max-width: 136px; text-align: start;"><span class="nodeLabel "><p>email</p></span></div></foreignObject></g><g class="label attribute-keys" transform="translate(77.46875, 52.125)" style=""><foreignObject width="0" height="0"><div xmlns="http://www.w3.org/1999/xhtml" style="display: table-cell; white-space: nowrap; line-height: 1.5; max-width: 100px; text-align: start;"><span class="nodeLabel "></span></div></foreignObject></g><g class="label attribute-comment" transform="translate(123.8125, 52.125)" style=""><foreignObject width="0" height="0"><div xmlns="http://www.w3.org/1999/xhtml" style="display: table-cell; white-space: nowrap; line-height: 1.5; max-width: 100px; text-align: start;"><span class="nodeLabel "></span></div></foreignObject></g><g class="label attribute-type" transform="translate(-98.8125, 94.875)" style=""><foreignObject width="39.125" height="24"><div xmlns="http://www.w3.org/1999/xhtml" style="display: table-cell; white-space: nowrap; line-height: 1.5; max-width: 136px; text-align: start;"><span class="nodeLabel "><p>string</p></span></div></foreignObject></g><g class="label attribute-name" transform="translate(-34.6875, 94.875)" style=""><foreignObject width="44.5" height="24"><div xmlns="http://www.w3.org/1999/xhtml" style="display: table-cell; white-space: nowrap; line-height: 1.5; max-width: 139px; text-align: start;"><span class="nodeLabel "><p>phone</p></span></div></foreignObject></g><g class="label attribute-keys" transform="translate(77.46875, 94.875)" style=""><foreignObject width="0" height="0"><div xmlns="http://www.w3.org/1999/xhtml" style="display: table-cell; white-space: nowrap; line-height: 1.5; max-width: 100px; text-align: start;"><span class="nodeLabel "></span></div></foreignObject></g><g class="label attribute-comment" transform="translate(123.8125, 94.875)" style=""><foreignObject width="0" height="0"><div xmlns="http://www.w3.org/1999/xhtml" style="display: table-cell; white-space: nowrap; line-height: 1.5; max-width: 100px; text-align: start;"><span class="nodeLabel "></span></div></foreignObject></g><g class="divider"><path d="M-111.3125 -85.50005 L-111.3125 -85.49995 L111.3125 -85.49995 L111.3125 -85.50005" stroke="none" stroke-width="0" fill="#ECECFF" fill-rule="evenodd"/><path d="M-111.3125 -85.50005 C-111.3125 -85.50002190693334, -111.3125 -85.49999381386668, -111.3125 -85.49995 M-111.3125 -85.50005 C-111.3125 -85.50002721069089, -111.3125 -85.50000442138177, -111.3125 -85.49995 M-111.3125 -85.49995 C-30.122399314216437 -85.49995, 51.067701371567125 -85.49995, 111.3125 -85.49995 M-111.3125 -85.49995 C-53.0001349788041 -85.49995, 5.312230042391803 -85.49995, 111.3125 -85.49995 M111.3125 -85.49995 C111.3125 -85.4999804141361, 111.3125 -85.50001082827221, 111.3125 -85.50005 M111.3125 -85.49995 C111.3125 -85.49997287167753, 111.3125 -85.49999574335506, 111.3125 -85.50005 M111.3125 -85.50005 C38.17603704994275 -85.50005, -34.9604259001145 -85.50005, -111.3125 -85.50005 M111.3125 -85.50005 C40.472669053023566 -85.50005, -30.36716189395287 -85.50005, -111.3125 -85.50005" stroke="#9370DB" stroke-width="1.3" fill="none" stroke-dasharray="0 0"/></g><g class="divider"><path d="M-47.18755 -85.5 L-47.18745 -85.5 L-47.18745 128.25 L-47.18755 128.25" stroke="none" stroke-width="0" fill="#ECECFF" fill-rule="evenodd"/><path d="M-47.18755 -85.5 C-47.18752888274971 -85.5, -47.18750776549942 -85.5, -47.18745 -85.5 M-47.18755 -85.5 C-47.18751677592061 -85.5, -47.187483551841204 -85.5, -47.18745 -85.5 M-47.18745 -85.5 C-47.18745 -4.69028197417326, -47.18745 76.11943605165348, -47.18745 128.25 M-47.18745 -85.5 C-47.18745 -26.092138442359392, -47.18745 33.315723115281216, -47.18745 128.25 M-47.18745 128.25 C-47.18747925720476 128.25, -47.18750851440951 128.25, -47.18755 128.25 M-47.18745 128.25 C-47.18748525248547 128.25, -47.18752050497095 128.25, -47.18755 128.25 M-47.18755 128.25 C-47.18755 66.36041180873585, -47.18755 4.470823617471709, -47.18755 -85.5 M-47.18755 128.25 C-47.18755 45.405589469979105, -47.18755 -37.43882106004179, -47.18755 -85.5" stroke="#9370DB" stroke-width="1.3" fill="none" stroke-dasharray="0 0"/></g><g class="divider"><path d="M64.9687 -85.5 L64.9688 -85.5 L64.9688 128.25 L64.9687 128.25" stroke="none" stroke-width="0" fill="#ECECFF" fill-rule="evenodd"/><path d="M64.9687 -85.5 C64.96873827859226 -85.5, 64.9687765571845 -85.5, 64.9688 -85.5 M64.9687 -85.5 C64.96872549162819 -85.5, 64.96875098325638 -85.5, 64.9688 -85.5 M64.9688 -85.5 C64.9688 -31.243270174696406, 64.9688 23.01345965060719, 64.9688 128.25 M64.9688 -85.5 C64.9688 -8.327855308248488, 64.9688 68.84428938350302, 64.9688 128.25 M64.9688 128.25 C64.96877138163224 128.25, 64.96874276326447 128.25, 64.9687 128.25 M64.9688 128.25 C64.96876817366531 128.25, 64.96873634733062 128.25, 64.9687 128.25 M64.9687 128.25 C64.9687 77.06681865663825, 64.9687 25.88363731327651, 64.9687 -85.5 M64.9687 128.25 C64.9687 45.714119421790215, 64.9687 -36.82176115641957, 64.9687 -85.5" stroke="#9370DB" stroke-width="1.3" fill="none" stroke-dasharray="0 0"/></g><g class="divider"><path d="M-111.3125 -85.50005 L-111.3125 -85.49995 L111.3125 -85.49995 L111.3125 -85.50005" stroke="none" stroke-width="0" fill="#ECECFF" fill-rule="evenodd"/><path d="M-111.3125 -85.50005 C-111.3125 -85.50002213586907, -111.3125 -85.49999427173815, -111.3125 -85.49995 M-111.3125 -85.50005 C-111.3125 -85.50002109457533, -111.3125 -85.49999218915066, -111.3125 -85.49995 M-111.3125 -85.49995 C-58.81183468654093 -85.49995, -6.311169373081853 -85.49995, 111.3125 -85.49995 M-111.3125 -85.49995 C-63.79772633586694 -85.49995, -16.28295267173388 -85.49995, 111.3125 -85.49995 M111.3125 -85.49995 C111.3125 -85.4999749146739, 111.3125 -85.4999998293478, 111.3125 -85.50005 M111.3125 -85.49995 C111.3125 -85.49998453720514, 111.3125 -85.50001907441029, 111.3125 -85.50005 M111.3125 -85.50005 C49.53617080264099 -85.50005, -12.240158394718023 -85.50005, -111.3125 -85.50005 M111.3125 -85.50005 C66.38746750117495 -85.50005, 21.462435002349906 -85.50005, -111.3125 -85.50005" stroke="#9370DB" stroke-width="1.3" fill="none" stroke-dasharray="0 0"/></g></g><g class="node default " id="mermaid-svg-entity-CATEGORY-1" data-look="classic" transform="translate(518.890625, 136.25)"><g class="outer-path" style=""><path d="M-122.8828125 -64.125 L122.8828125 -64.125 L122.8828125 64.125 L-122.8828125 64.125" stroke="none" stroke-width="0" fill="#ECECFF"/><path d="M-122.8828125 -64.125 C-38.98373751111761 -64.125, 44.91533747776478 -64.125, 122.8828125 -64.125 M-122.8828125 -64.125 C-57.49611315825233 -64.125, 7.890586183495344 -64.125, 122.8828125 -64.125 M122.8828125 -64.125 C122.8828125 -13.455701209928549, 122.8828125 37.2135975801429, 122.8828125 64.125 M122.8828125 -64.125 C122.8828125 -24.328206848678846, 122.8828125 15.468586302642308, 122.8828125 64.125 M122.8828125 64.125 C55.776557091116715 64.125, -11.32969831776657 64.125, -122.8828125 64.125 M122.8828125 64.125 C46.35637729887131 64.125, -30.170057902257383 64.125, -122.8828125 64.125 M-122.8828125 64.125 C-122.8828125 32.849123773512645, -122.8828125 1.5732475470252894, -122.8828125 -64.125 M-122.8828125 64.125 C-122.8828125 16.411044486413623, -122.8828125 -31.302911027172755, -122.8828125 -64.125" stroke="#9370DB" stroke-width="1.3" fill="none" stroke-dasharray="0 0"/></g><g style="" class="row-rect-odd"><path d="M-122.8828125 -21.375 L122.8828125 -21.375 L122.8828125 21.375 L-122.8828125 21.375" stroke="none" stroke-width="0" fill="hsl(240, 100%, 100%)"/><path d="M-122.8828125 -21.375 C-41.84085424790783 -21.375, 39.201104004184344 -21.375, 122.8828125 -21.375 M-122.8828125 -21.375 C-57.32910166139632 -21.375, 8.224609177207356 -21.375, 122.8828125 -21.375 M122.8828125 -21.375 C122.8828125 -6.659408131866737, 122.8828125 8.056183736266526, 122.8828125 21.375 M122.8828125 -21.375 C122.8828125 -12.492555627878545, 122.8828125 -3.61011125575709, 122.8828125 21.375 M122.8828125 21.375 C29.407369621999067 21.375, -64.06807325600187 21.375, -122.8828125 21.375 M122.8828125 21.375 C64.94530216582814 21.375, 7.007791831656277 21.375, -122.8828125 21.375 M-122.8828125 21.375 C-122.8828125 9.512174701123756, -122.8828125 -2.3506505977524874, -122.8828125 -21.375 M-122.8828125 21.375 C-122.8828125 11.122790008166255, -122.8828125 0.8705800163325108, -122.8828125 -21.375" stroke="#9370DB" stroke-width="1.3" fill="none" stroke-dasharray="0 0"/></g><g style="" class="row-rect-even"><path d="M-122.8828125 21.375 L122.8828125 21.375 L122.8828125 64.125 L-122.8828125 64.125" stroke="none" stroke-width="0" fill="hsl(240, 100%, 97.2745098039%)"/><path d="M-122.8828125 21.375 C-25.873565361943236 21.375, 71.13568177611353 21.375, 122.8828125 21.375 M-122.8828125 21.375 C-37.25016366964894 21.375, 48.38248516070212 21.375, 122.8828125 21.375 M122.8828125 21.375 C122.8828125 34.62639215769596, 122.8828125 47.87778431539192, 122.8828125 64.125 M122.8828125 21.375 C122.8828125 35.95056754792388, 122.8828125 50.526135095847756, 122.8828125 64.125 M122.8828125 64.125 C40.62194676280403 64.125, -41.63891897439194 64.125, -122.8828125 64.125 M122.8828125 64.125 C37.241622075010994 64.125, -48.39956834997801 64.125, -122.8828125 64.125 M-122.8828125 64.125 C-122.8828125 53.341745837007885, -122.8828125 42.55849167401577, -122.8828125 21.375 M-122.8828125 64.125 C-122.8828125 53.16476184438824, -122.8828125 42.204523688776476, -122.8828125 21.375" stroke="#9370DB" stroke-width="1.3" fill="none" stroke-dasharray="0 0"/></g><g class="label name" transform="translate(-44.15625, -54.75)" style=""><foreignObject width="88.3125" height="24"><div xmlns="http://www.w3.org/1999/xhtml" style="display: table-cell; white-space: nowrap; line-height: 1.5; max-width: 185px; text-align: start;"><span class="nodeLabel "><p>CATEGORY</p></span></div></foreignObject></g><g class="label attribute-type" transform="translate(-110.3828125, -12)" style=""><foreignObject width="16.90625" height="24"><div xmlns="http://www.w3.org/1999/xhtml" style="display: table-cell; white-space: nowrap; line-height: 1.5; max-width: 117px; text-align: start;"><span class="nodeLabel "><p>int</p></span></div></foreignObject></g><g class="label attribute-name" transform="translate(-46.2578125, -12)" style=""><foreignObject width="82.71875" height="24"><div xmlns="http://www.w3.org/1999/xhtml" style="display: table-cell; white-space: nowrap; line-height: 1.5; max-width: 176px; text-align: start;"><span class="nodeLabel "><p>category_id</p></span></div></foreignObject></g><g class="label attribute-keys" transform="translate(89.0390625, -12)" style=""><foreignObject width="21.34375" height="24"><div xmlns="http://www.w3.org/1999/xhtml" style="display: table-cell; white-space: nowrap; line-height: 1.5; max-width: 121px; text-align: start;"><span class="nodeLabel "><p>PK</p></span></div></foreignObject></g><g class="label attribute-comment" transform="translate(135.3828125, -12)" style=""><foreignObject width="0" height="0"><div xmlns="http://www.w3.org/1999/xhtml" style="display: table-cell; white-space: nowrap; line-height: 1.5; max-width: 100px; text-align: start;"><span class="nodeLabel "></span></div></foreignObject></g><g class="label attribute-type" transform="translate(-110.3828125, 30.75)" style=""><foreignObject width="39.125" height="24"><div xmlns="http://www.w3.org/1999/xhtml" style="display: table-cell; white-space: nowrap; line-height: 1.5; max-width: 136px; text-align: start;"><span class="nodeLabel "><p>string</p></span></div></foreignObject></g><g class="label attribute-name" transform="translate(-46.2578125, 30.75)" style=""><foreignObject width="110.296875" height="24"><div xmlns="http://www.w3.org/1999/xhtml" style="display: table-cell; white-space: nowrap; line-height: 1.5; max-width: 198px; text-align: start;"><span class="nodeLabel "><p>category_name</p></span></div></foreignObject></g><g class="label attribute-keys" transform="translate(89.0390625, 30.75)" style=""><foreignObject width="0" height="0"><div xmlns="http://www.w3.org/1999/xhtml" style="display: table-cell; white-space: nowrap; line-height: 1.5; max-width: 100px; text-align: start;"><span class="nodeLabel "></span></div></foreignObject></g><g class="label attribute-comment" transform="translate(135.3828125, 30.75)" style=""><foreignObject width="0" height="0"><div xmlns="http://www.w3.org/1999/xhtml" style="display: table-cell; white-space: nowrap; line-height: 1.5; max-width: 100px; text-align: start;"><span class="nodeLabel "></span></div></foreignObject></g><g class="divider"><path d="M-122.8828125 -21.37505 L-122.8828125 -21.37495 L122.8828125 -21.37495 L122.8828125 -21.37505" stroke="none" stroke-width="0" fill="#ECECFF" fill-rule="evenodd"/><path d="M-122.8828125 -21.37505 C-122.8828125 -21.375013100498965, -122.8828125 -21.374976200997928, -122.8828125 -21.37495 M-122.8828125 -21.37505 C-122.8828125 -21.375015991278403, -122.8828125 -21.3749819825568, -122.8828125 -21.37495 M-122.8828125 -21.37495 C-56.87692101797998 -21.37495, 9.128970464040037 -21.37495, 122.8828125 -21.37495 M-122.8828125 -21.37495 C-39.04303818945509 -21.37495, 44.79673612108982 -21.37495, 122.8828125 -21.37495 M122.8828125 -21.37495 C122.8828125 -21.374971884004076, 122.8828125 -21.37499376800815, 122.8828125 -21.37505 M122.8828125 -21.37495 C122.8828125 -21.374976786349606, 122.8828125 -21.375003572699217, 122.8828125 -21.37505 M122.8828125 -21.37505 C26.453500113418144 -21.37505, -69.97581227316371 -21.37505, -122.8828125 -21.37505 M122.8828125 -21.37505 C65.88476949849533 -21.37505, 8.886726496990676 -21.37505, -122.8828125 -21.37505" stroke="#9370DB" stroke-width="1.3" fill="none" stroke-dasharray="0 0"/></g><g class="divider"><path d="M-58.7578625 -21.375 L-58.7577625 -21.375 L-58.7577625 64.125 L-58.7578625 64.125" stroke="none" stroke-width="0" fill="#ECECFF" fill-rule="evenodd"/><path d="M-58.7578625 -21.375 C-58.75784159409697 -21.375, -58.757820688193945 -21.375, -58.7577625 -21.375 M-58.7578625 -21.375 C-58.75782344577989 -21.375, -58.757784391559774 -21.375, -58.7577625 -21.375 M-58.7577625 -21.375 C-58.7577625 12.509318328427007, -58.7577625 46.393636656854014, -58.7577625 64.125 M-58.7577625 -21.375 C-58.7577625 1.39396683908398, -58.7577625 24.16293367816796, -58.7577625 64.125 M-58.7577625 64.125 C-58.75779007883641 64.125, -58.75781765767282 64.125, -58.7578625 64.125 M-58.7577625 64.125 C-58.75780022979601 64.125, -58.75783795959203 64.125, -58.7578625 64.125 M-58.7578625 64.125 C-58.7578625 46.14647030366416, -58.7578625 28.16794060732832, -58.7578625 -21.375 M-58.7578625 64.125 C-58.7578625 35.63772448248149, -58.7578625 7.150448964962969, -58.7578625 -21.375" stroke="#9370DB" stroke-width="1.3" fill="none" stroke-dasharray="0 0"/></g><g class="divider"><path d="M76.5390125 -21.375 L76.5391125 -21.375 L76.5391125 64.125 L76.5390125 64.125" stroke="none" stroke-width="0" fill="#ECECFF" fill-rule="evenodd"/><path d="M76.5390125 -21.375 C76.53905089081165 -21.375, 76.5390892816233 -21.375, 76.5391125 -21.375 M76.5390125 -21.375 C76.53904531602589 -21.375, 76.53907813205178 -21.375, 76.5391125 -21.375 M76.5391125 -21.375 C76.5391125 4.108049826376671, 76.5391125 29.591099652753343, 76.5391125 64.125 M76.5391125 -21.375 C76.5391125 -1.6749151830436517, 76.5391125 18.025169633912697, 76.5391125 64.125 M76.5391125 64.125 C76.53909015737696 64.125, 76.53906781475393 64.125, 76.5390125 64.125 M76.5391125 64.125 C76.53908753581563 64.125, 76.53906257163126 64.125, 76.5390125 64.125 M76.5390125 64.125 C76.5390125 38.227728048737816, 76.5390125 12.330456097475626, 76.5390125 -21.375 M76.5390125 64.125 C76.5390125 41.179400465423555, 76.5390125 18.233800930847103, 76.5390125 -21.375" stroke="#9370DB" stroke-width="1.3" fill="none" stroke-dasharray="0 0"/></g><g class="divider"><path d="M-122.8828125 -21.37505 L-122.8828125 -21.37495 L122.8828125 -21.37495 L122.8828125 -21.37505" stroke="none" stroke-width="0" fill="#ECECFF" fill-rule="evenodd"/><path d="M-122.8828125 -21.37505 C-122.8828125 -21.37501236816595, -122.8828125 -21.3749747363319, -122.8828125 -21.37495 M-122.8828125 -21.37505 C-122.8828125 -21.37501942982828, -122.8828125 -21.374988859656558, -122.8828125 -21.37495 M-122.8828125 -21.37495 C-52.924436787408695 -21.37495, 17.03393892518261 -21.37495, 122.8828125 -21.37495 M-122.8828125 -21.37495 C-61.64096024596743 -21.37495, -0.399107991934855 -21.37495, 122.8828125 -21.37495 M122.8828125 -21.37495 C122.8828125 -21.374984688529366, 122.8828125 -21.375019377058738, 122.8828125 -21.37505 M122.8828125 -21.37495 C122.8828125 -21.374972111813417, 122.8828125 -21.37499422362683, 122.8828125 -21.37505 M122.8828125 -21.37505 C36.99060497175107 -21.37505, -48.90160255649786 -21.37505, -122.8828125 -21.37505 M122.8828125 -21.37505 C68.90858804363768 -21.37505, 14.93436358727537 -21.37505, -122.8828125 -21.37505" stroke="#9370DB" stroke-width="1.3" fill="none" stroke-dasharray="0 0"/></g></g><g class="node default " id="mermaid-svg-entity-PRODUCT-2" data-look="classic" transform="translate(518.890625, 493.75)"><g class="outer-path" style=""><path d="M-126.890625 -128.25 L126.890625 -128.25 L126.890625 128.25 L-126.890625 128.25" stroke="none" stroke-width="0" fill="#ECECFF"/><path d="M-126.890625 -128.25 C-56.97108901724198 -128.25, 12.948446965516041 -128.25, 126.890625 -128.25 M-126.890625 -128.25 C-69.22904228789693 -128.25, -11.567459575793848 -128.25, 126.890625 -128.25 M126.890625 -128.25 C126.890625 -73.98028206295253, 126.890625 -19.71056412590505, 126.890625 128.25 M126.890625 -128.25 C126.890625 -47.64703680746696, 126.890625 32.95592638506608, 126.890625 128.25 M126.890625 128.25 C34.382906725020234 128.25, -58.12481154995953 128.25, -126.890625 128.25 M126.890625 128.25 C29.988422312312025 128.25, -66.91378037537595 128.25, -126.890625 128.25 M-126.890625 128.25 C-126.890625 26.12381159576165, -126.890625 -76.0023768084767, -126.890625 -128.25 M-126.890625 128.25 C-126.890625 44.579932450012805, -126.890625 -39.09013509997439, -126.890625 -128.25" stroke="#9370DB" stroke-width="1.3" fill="none" stroke-dasharray="0 0"/></g><g style="" class="row-rect-odd"><path d="M-126.890625 -85.5 L126.890625 -85.5 L126.890625 -42.75 L-126.890625 -42.75" stroke="none" stroke-width="0" fill="hsl(240, 100%, 100%)"/><path d="M-126.890625 -85.5 C-42.77175460032397 -85.5, 41.34711579935205 -85.5, 126.890625 -85.5 M-126.890625 -85.5 C-39.485060520883636 -85.5, 47.92050395823273 -85.5, 126.890625 -85.5 M126.890625 -85.5 C126.890625 -68.54490776611976, 126.890625 -51.589815532239534, 126.890625 -42.75 M126.890625 -85.5 C126.890625 -71.35702432335074, 126.890625 -57.214048646701485, 126.890625 -42.75 M126.890625 -42.75 C64.33815692198644 -42.75, 1.785688843972892 -42.75, -126.890625 -42.75 M126.890625 -42.75 C58.24255325495598 -42.75, -10.405518490088042 -42.75, -126.890625 -42.75 M-126.890625 -42.75 C-126.890625 -58.266895596734074, -126.890625 -73.78379119346815, -126.890625 -85.5 M-126.890625 -42.75 C-126.890625 -54.61666981302546, -126.890625 -66.48333962605092, -126.890625 -85.5" stroke="#9370DB" stroke-width="1.3" fill="none" stroke-dasharray="0 0"/></g><g style="" class="row-rect-even"><path d="M-126.890625 -42.75 L126.890625 -42.75 L126.890625 0 L-126.890625 0" stroke="none" stroke-width="0" fill="hsl(240, 100%, 97.2745098039%)"/><path d="M-126.890625 -42.75 C-27.851994067985046 -42.75, 71.18663686402991 -42.75, 126.890625 -42.75 M-126.890625 -42.75 C-70.34821068902262 -42.75, -13.805796378045244 -42.75, 126.890625 -42.75 M126.890625 -42.75 C126.890625 -26.142175918301323, 126.890625 -9.534351836602646, 126.890625 0 M126.890625 -42.75 C126.890625 -27.756927399338547, 126.890625 -12.763854798677094, 126.890625 0 M126.890625 0 C58.69081209107436 0, -9.509000817851273 0, -126.890625 0 M126.890625 0 C45.07825857797569 0, -36.73410784404862 0, -126.890625 0 M-126.890625 0 C-126.890625 -15.930342643531029, -126.890625 -31.860685287062058, -126.890625 -42.75 M-126.890625 0 C-126.890625 -12.669798722433349, -126.890625 -25.339597444866698, -126.890625 -42.75" stroke="#9370DB" stroke-width="1.3" fill="none" stroke-dasharray="0 0"/></g><g style="" class="row-rect-odd"><path d="M-126.890625 0 L126.890625 0 L126.890625 42.75 L-126.890625 42.75" stroke="none" stroke-width="0" fill="hsl(240, 100%, 100%)"/><path d="M-126.890625 0 C-40.542150470227384 0, 45.80632405954523 0, 126.890625 0 M-126.890625 0 C-41.64268761260223 0, 43.60524977479554 0, 126.890625 0 M126.890625 0 C126.890625 14.779737571176105, 126.890625 29.55947514235221, 126.890625 42.75 M126.890625 0 C126.890625 11.25661890769021, 126.890625 22.51323781538042, 126.890625 42.75 M126.890625 42.75 C51.775267160178444 42.75, -23.34009067964311 42.75, -126.890625 42.75 M126.890625 42.75 C36.10430083939842 42.75, -54.68202332120316 42.75, -126.890625 42.75 M-126.890625 42.75 C-126.890625 26.177355842425097, -126.890625 9.604711684850194, -126.890625 0 M-126.890625 42.75 C-126.890625 32.453862801802636, -126.890625 22.15772560360527, -126.890625 0" stroke="#9370DB" stroke-width="1.3" fill="none" stroke-dasharray="0 0"/></g><g style="" class="row-rect-even"><path d="M-126.890625 42.75 L126.890625 42.75 L126.890625 85.5 L-126.890625 85.5" stroke="none" stroke-width="0" fill="hsl(240, 100%, 97.2745098039%)"/><path d="M-126.890625 42.75 C-56.79456141059825 42.75, 13.301502178803503 42.75, 126.890625 42.75 M-126.890625 42.75 C-49.920200139587735 42.75, 27.05022472082453 42.75, 126.890625 42.75 M126.890625 42.75 C126.890625 58.09095590556968, 126.890625 73.43191181113936, 126.890625 85.5 M126.890625 42.75 C126.890625 58.18700500884697, 126.890625 73.62401001769393, 126.890625 85.5 M126.890625 85.5 C32.15744628429587 85.5, -62.575732431408255 85.5, -126.890625 85.5 M126.890625 85.5 C36.73463616150016 85.5, -53.421352676999675 85.5, -126.890625 85.5 M-126.890625 85.5 C-126.890625 70.09342447782373, -126.890625 54.68684895564746, -126.890625 42.75 M-126.890625 85.5 C-126.890625 75.66000824549793, -126.890625 65.82001649099587, -126.890625 42.75" stroke="#9370DB" stroke-width="1.3" fill="none" stroke-dasharray="0 0"/></g><g style="" class="row-rect-odd"><path d="M-126.890625 85.5 L126.890625 85.5 L126.890625 128.25 L-126.890625 128.25" stroke="none" stroke-width="0" fill="hsl(240, 100%, 100%)"/><path d="M-126.890625 85.5 C-36.908370221081384 85.5, 53.07388455783723 85.5, 126.890625 85.5 M-126.890625 85.5 C-69.65575378882754 85.5, -12.420882577655078 85.5, 126.890625 85.5 M126.890625 85.5 C126.890625 101.25241030871989, 126.890625 117.00482061743978, 126.890625 128.25 M126.890625 85.5 C126.890625 96.04651921170259, 126.890625 106.59303842340518, 126.890625 128.25 M126.890625 128.25 C41.58945105000801 128.25, -43.71172289998398 128.25, -126.890625 128.25 M126.890625 128.25 C64.12781566973467 128.25, 1.365006339469332 128.25, -126.890625 128.25 M-126.890625 128.25 C-126.890625 112.553933619171, -126.890625 96.85786723834201, -126.890625 85.5 M-126.890625 128.25 C-126.890625 116.15511804140007, -126.890625 104.06023608280013, -126.890625 85.5" stroke="#9370DB" stroke-width="1.3" fill="none" stroke-dasharray="0 0"/></g><g class="label name" transform="translate(-39.5546875, -118.875)" style=""><foreignObject width="79.109375" height="24"><div xmlns="http://www.w3.org/1999/xhtml" style="display: table-cell; white-space: nowrap; line-height: 1.5; max-width: 175px; text-align: start;"><span class="nodeLabel "><p>PRODUCT</p></span></div></foreignObject></g><g class="label attribute-type" transform="translate(-114.390625, -76.125)" style=""><foreignObject width="16.90625" height="24"><div xmlns="http://www.w3.org/1999/xhtml" style="display: table-cell; white-space: nowrap; line-height: 1.5; max-width: 117px; text-align: start;"><span class="nodeLabel "><p>int</p></span></div></foreignObject></g><g class="label attribute-name" transform="translate(-34.25, -76.125)" style=""><foreignObject width="74.71875" height="24"><div xmlns="http://www.w3.org/1999/xhtml" style="display: table-cell; white-space: nowrap; line-height: 1.5; max-width: 169px; text-align: start;"><span class="nodeLabel "><p>product_id</p></span></div></foreignObject></g><g class="label attribute-keys" transform="translate(93.046875, -76.125)" style=""><foreignObject width="21.34375" height="24"><div xmlns="http://www.w3.org/1999/xhtml" style="display: table-cell; white-space: nowrap; line-height: 1.5; max-width: 121px; text-align: start;"><span class="nodeLabel "><p>PK</p></span></div></foreignObject></g><g class="label attribute-comment" transform="translate(139.390625, -76.125)" style=""><foreignObject width="0" height="0"><div xmlns="http://www.w3.org/1999/xhtml" style="display: table-cell; white-space: nowrap; line-height: 1.5; max-width: 100px; text-align: start;"><span class="nodeLabel "></span></div></foreignObject></g><g class="label attribute-type" transform="translate(-114.390625, -33.375)" style=""><foreignObject width="39.125" height="24"><div xmlns="http://www.w3.org/1999/xhtml" style="display: table-cell; white-space: nowrap; line-height: 1.5; max-width: 136px; text-align: start;"><span class="nodeLabel "><p>string</p></span></div></foreignObject></g><g class="label attribute-name" transform="translate(-34.25, -33.375)" style=""><foreignObject width="102.296875" height="24"><div xmlns="http://www.w3.org/1999/xhtml" style="display: table-cell; white-space: nowrap; line-height: 1.5; max-width: 192px; text-align: start;"><span class="nodeLabel "><p>product_name</p></span></div></foreignObject></g><g class="label attribute-keys" transform="translate(93.046875, -33.375)" style=""><foreignObject width="0" height="0"><div xmlns="http://www.w3.org/1999/xhtml" style="display: table-cell; white-space: nowrap; line-height: 1.5; max-width: 100px; text-align: start;"><span class="nodeLabel "></span></div></foreignObject></g><g class="label attribute-comment" transform="translate(139.390625, -33.375)" style=""><foreignObject width="0" height="0"><div xmlns="http://www.w3.org/1999/xhtml" style="display: table-cell; white-space: nowrap; line-height: 1.5; max-width: 100px; text-align: start;"><span class="nodeLabel "></span></div></foreignObject></g><g class="label attribute-type" transform="translate(-114.390625, 9.375)" style=""><foreignObject width="55.140625" height="24"><div xmlns="http://www.w3.org/1999/xhtml" style="display: table-cell; white-space: nowrap; line-height: 1.5; max-width: 151px; text-align: start;"><span class="nodeLabel "><p>decimal</p></span></div></foreignObject></g><g class="label attribute-name" transform="translate(-34.25, 9.375)" style=""><foreignObject width="34.6875" height="24"><div xmlns="http://www.w3.org/1999/xhtml" style="display: table-cell; white-space: nowrap; line-height: 1.5; max-width: 132px; text-align: start;"><span class="nodeLabel "><p>price</p></span></div></foreignObject></g><g class="label attribute-keys" transform="translate(93.046875, 9.375)" style=""><foreignObject width="0" height="0"><div xmlns="http://www.w3.org/1999/xhtml" style="display: table-cell; white-space: nowrap; line-height: 1.5; max-width: 100px; text-align: start;"><span class="nodeLabel "></span></div></foreignObject></g><g class="label attribute-comment" transform="translate(139.390625, 9.375)" style=""><foreignObject width="0" height="0"><div xmlns="http://www.w3.org/1999/xhtml" style="display: table-cell; white-space: nowrap; line-height: 1.5; max-width: 100px; text-align: start;"><span class="nodeLabel "></span></div></foreignObject></g><g class="label attribute-type" transform="translate(-114.390625, 52.125)" style=""><foreignObject width="16.90625" height="24"><div xmlns="http://www.w3.org/1999/xhtml" style="display: table-cell; white-space: nowrap; line-height: 1.5; max-width: 117px; text-align: start;"><span class="nodeLabel "><p>int</p></span></div></foreignObject></g><g class="label attribute-name" transform="translate(-34.25, 52.125)" style=""><foreignObject width="102.28125" height="24"><div xmlns="http://www.w3.org/1999/xhtml" style="display: table-cell; white-space: nowrap; line-height: 1.5; max-width: 194px; text-align: start;"><span class="nodeLabel "><p>stock_quantity</p></span></div></foreignObject></g><g class="label attribute-keys" transform="translate(93.046875, 52.125)" style=""><foreignObject width="0" height="0"><div xmlns="http://www.w3.org/1999/xhtml" style="display: table-cell; white-space: nowrap; line-height: 1.5; max-width: 100px; text-align: start;"><span class="nodeLabel "></span></div></foreignObject></g><g class="label attribute-comment" transform="translate(139.390625, 52.125)" style=""><foreignObject width="0" height="0"><div xmlns="http://www.w3.org/1999/xhtml" style="display: table-cell; white-space: nowrap; line-height: 1.5; max-width: 100px; text-align: start;"><span class="nodeLabel "></span></div></foreignObject></g><g class="label attribute-type" transform="translate(-114.390625, 94.875)" style=""><foreignObject width="16.90625" height="24"><div xmlns="http://www.w3.org/1999/xhtml" style="display: table-cell; white-space: nowrap; line-height: 1.5; max-width: 117px; text-align: start;"><span class="nodeLabel "><p>int</p></span></div></foreignObject></g><g class="label attribute-name" transform="translate(-34.25, 94.875)" style=""><foreignObject width="82.71875" height="24"><div xmlns="http://www.w3.org/1999/xhtml" style="display: table-cell; white-space: nowrap; line-height: 1.5; max-width: 176px; text-align: start;"><span class="nodeLabel "><p>category_id</p></span></div></foreignObject></g><g class="label attribute-keys" transform="translate(93.046875, 94.875)" style=""><foreignObject width="20.453125" height="24"><div xmlns="http://www.w3.org/1999/xhtml" style="display: table-cell; white-space: nowrap; line-height: 1.5; max-width: 121px; text-align: start;"><span class="nodeLabel "><p>FK</p></span></div></foreignObject></g><g class="label attribute-comment" transform="translate(139.390625, 94.875)" style=""><foreignObject width="0" height="0"><div xmlns="http://www.w3.org/1999/xhtml" style="display: table-cell; white-space: nowrap; line-height: 1.5; max-width: 100px; text-align: start;"><span class="nodeLabel "></span></div></foreignObject></g><g class="divider"><path d="M-126.890625 -85.50005 L-126.890625 -85.49995 L126.890625 -85.49995 L126.890625 -85.50005" stroke="none" stroke-width="0" fill="#ECECFF" fill-rule="evenodd"/><path d="M-126.890625 -85.50005 C-126.890625 -85.50001580729538, -126.890625 -85.49998161459078, -126.890625 -85.49995 M-126.890625 -85.50005 C-126.890625 -85.50002567251322, -126.890625 -85.50000134502643, -126.890625 -85.49995 M-126.890625 -85.49995 C-28.19097326527246 -85.49995, 70.50867846945508 -85.49995, 126.890625 -85.49995 M-126.890625 -85.49995 C-70.0485556403371 -85.49995, -13.206486280674213 -85.49995, 126.890625 -85.49995 M126.890625 -85.49995 C126.890625 -85.49997619713683, 126.890625 -85.50000239427366, 126.890625 -85.50005 M126.890625 -85.49995 C126.890625 -85.49998412071393, 126.890625 -85.50001824142788, 126.890625 -85.50005 M126.890625 -85.50005 C35.114319064831065 -85.50005, -56.66198687033787 -85.50005, -126.890625 -85.50005 M126.890625 -85.50005 C69.67119465890002 -85.50005, 12.451764317800055 -85.50005, -126.890625 -85.50005" stroke="#9370DB" stroke-width="1.3" fill="none" stroke-dasharray="0 0"/></g><g class="divider"><path d="M-46.75005 -85.5 L-46.74995 -85.5 L-46.74995 128.25 L-46.75005 128.25" stroke="none" stroke-width="0" fill="#ECECFF" fill-rule="evenodd"/><path d="M-46.75005 -85.5 C-46.75001734847178 -85.5, -46.74998469694355 -85.5, -46.74995 -85.5 M-46.75005 -85.5 C-46.75002455411339 -85.5, -46.749999108226774 -85.5, -46.74995 -85.5 M-46.74995 -85.5 C-46.74995 -39.44156365169107, -46.74995 6.616872696617861, -46.74995 128.25 M-46.74995 -85.5 C-46.74995 -40.285159931831345, -46.74995 4.929680136337311, -46.74995 128.25 M-46.74995 128.25 C-46.74997842632955 128.25, -46.75000685265909 128.25, -46.75005 128.25 M-46.74995 128.25 C-46.74997630678897 128.25, -46.75000261357794 128.25, -46.75005 128.25 M-46.75005 128.25 C-46.75005 49.137864686530705, -46.75005 -29.97427062693859, -46.75005 -85.5 M-46.75005 128.25 C-46.75005 84.80659631990679, -46.75005 41.36319263981356, -46.75005 -85.5" stroke="#9370DB" stroke-width="1.3" fill="none" stroke-dasharray="0 0"/></g><g class="divider"><path d="M80.546825 -85.5 L80.546925 -85.5 L80.546925 128.25 L80.546825 128.25" stroke="none" stroke-width="0" fill="#ECECFF" fill-rule="evenodd"/><path d="M80.546825 -85.5 C80.54685201353654 -85.5, 80.54687902707308 -85.5, 80.546925 -85.5 M80.546825 -85.5 C80.54686357709615 -85.5, 80.54690215419228 -85.5, 80.546925 -85.5 M80.546925 -85.5 C80.546925 -20.992796670155258, 80.546925 43.514406659689485, 80.546925 128.25 M80.546925 -85.5 C80.546925 -34.613339439603216, 80.546925 16.273321120793568, 80.546925 128.25 M80.546925 128.25 C80.54690385274125 128.25, 80.54688270548249 128.25, 80.546825 128.25 M80.546925 128.25 C80.54689807715923 128.25, 80.54687115431845 128.25, 80.546825 128.25 M80.546825 128.25 C80.546825 79.0930648374749, 80.546825 29.936129674949797, 80.546825 -85.5 M80.546825 128.25 C80.546825 61.208973660875856, 80.546825 -5.832052678248289, 80.546825 -85.5" stroke="#9370DB" stroke-width="1.3" fill="none" stroke-dasharray="0 0"/></g><g class="divider"><path d="M-126.890625 -85.50005 L-126.890625 -85.49995 L126.890625 -85.49995 L126.890625 -85.50005" stroke="none" stroke-width="0" fill="#ECECFF" fill-rule="evenodd"/><path d="M-126.890625 -85.50005 C-126.890625 -85.50002819263864, -126.890625 -85.50000638527729, -126.890625 -85.49995 M-126.890625 -85.50005 C-126.890625 -85.5000209591342, -126.890625 -85.4999919182684, -126.890625 -85.49995 M-126.890625 -85.49995 C-57.48823148334425 -85.49995, 11.914162033311499 -85.49995, 126.890625 -85.49995 M-126.890625 -85.49995 C-43.24738928924823 -85.49995, 40.395846421503535 -85.49995, 126.890625 -85.49995 M126.890625 -85.49995 C126.890625 -85.4999802340839, 126.890625 -85.50001046816782, 126.890625 -85.50005 M126.890625 -85.49995 C126.890625 -85.4999853814041, 126.890625 -85.5000207628082, 126.890625 -85.50005 M126.890625 -85.50005 C74.20784439221829 -85.50005, 21.525063784436583 -85.50005, -126.890625 -85.50005 M126.890625 -85.50005 C55.73972998057678 -85.50005, -15.411165038846434 -85.50005, -126.890625 -85.50005" stroke="#9370DB" stroke-width="1.3" fill="none" stroke-dasharray="0 0"/></g></g><g class="node default " id="mermaid-svg-entity-ORDER-3" data-look="classic" transform="translate(130, 493.75)"><g class="outer-path" style=""><path d="M-122 -106.875 L122 -106.875 L122 106.875 L-122 106.875" stroke="none" stroke-width="0" fill="#ECECFF"/><path d="M-122 -106.875 C-38.87163473271373 -106.875, 44.25673053457254 -106.875, 122 -106.875 M-122 -106.875 C-54.89902610344683 -106.875, 12.201947793106342 -106.875, 122 -106.875 M122 -106.875 C122 -61.413132630775266, 122 -15.951265261550532, 122 106.875 M122 -106.875 C122 -47.90225210300487, 122 11.070495793990261, 122 106.875 M122 106.875 C69.92359387035393 106.875, 17.847187740707852 106.875, -122 106.875 M122 106.875 C67.69191495036846 106.875, 13.383829900736913 106.875, -122 106.875 M-122 106.875 C-122 46.0642041350656, -122 -14.746591729868797, -122 -106.875 M-122 106.875 C-122 55.330179341636665, -122 3.78535868327333, -122 -106.875" stroke="#9370DB" stroke-width="1.3" fill="none" stroke-dasharray="0 0"/></g><g style="" class="row-rect-odd"><path d="M-122 -64.125 L122 -64.125 L122 -21.375 L-122 -21.375" stroke="none" stroke-width="0" fill="hsl(240, 100%, 100%)"/><path d="M-122 -64.125 C-50.764961072157874 -64.125, 20.470077855684252 -64.125, 122 -64.125 M-122 -64.125 C-60.54696024766124 -64.125, 0.9060795046775212 -64.125, 122 -64.125 M122 -64.125 C122 -50.02721455134497, 122 -35.92942910268994, 122 -21.375 M122 -64.125 C122 -54.81706596526554, 122 -45.50913193053108, 122 -21.375 M122 -21.375 C24.849838029996164 -21.375, -72.30032394000767 -21.375, -122 -21.375 M122 -21.375 C38.48006550736905 -21.375, -45.039868985261904 -21.375, -122 -21.375 M-122 -21.375 C-122 -37.69024214129621, -122 -54.00548428259243, -122 -64.125 M-122 -21.375 C-122 -32.53643467655343, -122 -43.697869353106846, -122 -64.125" stroke="#9370DB" stroke-width="1.3" fill="none" stroke-dasharray="0 0"/></g><g style="" class="row-rect-even"><path d="M-122 -21.375 L122 -21.375 L122 21.375 L-122 21.375" stroke="none" stroke-width="0" fill="hsl(240, 100%, 97.2745098039%)"/><path d="M-122 -21.375 C-62.75157730017361 -21.375, -3.503154600347216 -21.375, 122 -21.375 M-122 -21.375 C-40.28535148430652 -21.375, 41.429297031386966 -21.375, 122 -21.375 M122 -21.375 C122 -9.474391710050154, 122 2.426216579899691, 122 21.375 M122 -21.375 C122 -5.8560967709040845, 122 9.662806458191831, 122 21.375 M122 21.375 C51.71856010473964 21.375, -18.562879790520725 21.375, -122 21.375 M122 21.375 C51.279058394130416 21.375, -19.441883211739167 21.375, -122 21.375 M-122 21.375 C-122 10.804925450729515, -122 0.23485090145902987, -122 -21.375 M-122 21.375 C-122 8.10642762858064, -122 -5.16214474283872, -122 -21.375" stroke="#9370DB" stroke-width="1.3" fill="none" stroke-dasharray="0 0"/></g><g style="" class="row-rect-odd"><path d="M-122 21.375 L122 21.375 L122 64.125 L-122 64.125" stroke="none" stroke-width="0" fill="hsl(240, 100%, 100%)"/><path d="M-122 21.375 C-28.79580500869008 21.375, 64.40838998261984 21.375, 122 21.375 M-122 21.375 C-53.59084165089462 21.375, 14.818316698210765 21.375, 122 21.375 M122 21.375 C122 31.619950283227162, 122 41.864900566454324, 122 64.125 M122 21.375 C122 36.47890778527497, 122 51.58281557054995, 122 64.125 M122 64.125 C48.921010358820666 64.125, -24.157979282358667 64.125, -122 64.125 M122 64.125 C61.95283460540898 64.125, 1.9056692108179618 64.125, -122 64.125 M-122 64.125 C-122 51.66820712927756, -122 39.21141425855513, -122 21.375 M-122 64.125 C-122 54.25429501717039, -122 44.383590034340784, -122 21.375" stroke="#9370DB" stroke-width="1.3" fill="none" stroke-dasharray="0 0"/></g><g style="" class="row-rect-even"><path d="M-122 64.125 L122 64.125 L122 106.875 L-122 106.875" stroke="none" stroke-width="0" fill="hsl(240, 100%, 97.2745098039%)"/><path d="M-122 64.125 C-50.61155913154711 64.125, 20.77688173690578 64.125, 122 64.125 M-122 64.125 C-42.50015933477658 64.125, 36.99968133044683 64.125, 122 64.125 M122 64.125 C122 73.21459973757412, 122 82.30419947514822, 122 106.875 M122 64.125 C122 79.12058564995172, 122 94.11617129990344, 122 106.875 M122 106.875 C63.533878399020104 106.875, 5.067756798040207 106.875, -122 106.875 M122 106.875 C63.42246251205796 106.875, 4.844925024115923 106.875, -122 106.875 M-122 106.875 C-122 93.64369578247664, -122 80.41239156495328, -122 64.125 M-122 106.875 C-122 96.95853957064362, -122 87.04207914128725, -122 64.125" stroke="#9370DB" stroke-width="1.3" fill="none" stroke-dasharray="0 0"/></g><g class="label name" transform="translate(-28.890625, -97.5)" style=""><foreignObject width="57.78125" height="24"><div xmlns="http://www.w3.org/1999/xhtml" style="display: table-cell; white-space: nowrap; line-height: 1.5; max-width: 155px; text-align: start;"><span class="nodeLabel "><p>ORDER</p></span></div></foreignObject></g><g class="label attribute-type" transform="translate(-109.5, -54.75)" style=""><foreignObject width="16.90625" height="24"><div xmlns="http://www.w3.org/1999/xhtml" style="display: table-cell; white-space: nowrap; line-height: 1.5; max-width: 117px; text-align: start;"><span class="nodeLabel "><p>int</p></span></div></foreignObject></g><g class="label attribute-name" transform="translate(-29.359375, -54.75)" style=""><foreignObject width="58.703125" height="24"><div xmlns="http://www.w3.org/1999/xhtml" style="display: table-cell; white-space: nowrap; line-height: 1.5; max-width: 159px; text-align: start;"><span class="nodeLabel "><p>order_id</p></span></div></foreignObject></g><g class="label attribute-keys" transform="translate(88.15625, -54.75)" style=""><foreignObject width="21.34375" height="24"><div xmlns="http://www.w3.org/1999/xhtml" style="display: table-cell; white-space: nowrap; line-height: 1.5; max-width: 121px; text-align: start;"><span class="nodeLabel "><p>PK</p></span></div></foreignObject></g><g class="label attribute-comment" transform="translate(134.5, -54.75)" style=""><foreignObject width="0" height="0"><div xmlns="http://www.w3.org/1999/xhtml" style="display: table-cell; white-space: nowrap; line-height: 1.5; max-width: 100px; text-align: start;"><span class="nodeLabel "></span></div></foreignObject></g><g class="label attribute-type" transform="translate(-109.5, -12)" style=""><foreignObject width="31.140625" height="24"><div xmlns="http://www.w3.org/1999/xhtml" style="display: table-cell; white-space: nowrap; line-height: 1.5; max-width: 127px; text-align: start;"><span class="nodeLabel "><p>date</p></span></div></foreignObject></g><g class="label attribute-name" transform="translate(-29.359375, -12)" style=""><foreignObject width="77.390625" height="24"><div xmlns="http://www.w3.org/1999/xhtml" style="display: table-cell; white-space: nowrap; line-height: 1.5; max-width: 177px; text-align: start;"><span class="nodeLabel "><p>order_date</p></span></div></foreignObject></g><g class="label attribute-keys" transform="translate(88.15625, -12)" style=""><foreignObject width="0" height="0"><div xmlns="http://www.w3.org/1999/xhtml" style="display: table-cell; white-space: nowrap; line-height: 1.5; max-width: 100px; text-align: start;"><span class="nodeLabel "></span></div></foreignObject></g><g class="label attribute-comment" transform="translate(134.5, -12)" style=""><foreignObject width="0" height="0"><div xmlns="http://www.w3.org/1999/xhtml" style="display: table-cell; white-space: nowrap; line-height: 1.5; max-width: 100px; text-align: start;"><span class="nodeLabel "></span></div></foreignObject></g><g class="label attribute-type" transform="translate(-109.5, 30.75)" style=""><foreignObject width="55.140625" height="24"><div xmlns="http://www.w3.org/1999/xhtml" style="display: table-cell; white-space: nowrap; line-height: 1.5; max-width: 151px; text-align: start;"><span class="nodeLabel "><p>decimal</p></span></div></foreignObject></g><g class="label attribute-name" transform="translate(-29.359375, 30.75)" style=""><foreignObject width="92.515625" height="24"><div xmlns="http://www.w3.org/1999/xhtml" style="display: table-cell; white-space: nowrap; line-height: 1.5; max-width: 193px; text-align: start;"><span class="nodeLabel "><p>total_amount</p></span></div></foreignObject></g><g class="label attribute-keys" transform="translate(88.15625, 30.75)" style=""><foreignObject width="0" height="0"><div xmlns="http://www.w3.org/1999/xhtml" style="display: table-cell; white-space: nowrap; line-height: 1.5; max-width: 100px; text-align: start;"><span class="nodeLabel "></span></div></foreignObject></g><g class="label attribute-comment" transform="translate(134.5, 30.75)" style=""><foreignObject width="0" height="0"><div xmlns="http://www.w3.org/1999/xhtml" style="display: table-cell; white-space: nowrap; line-height: 1.5; max-width: 100px; text-align: start;"><span class="nodeLabel "></span></div></foreignObject></g><g class="label attribute-type" transform="translate(-109.5, 73.5)" style=""><foreignObject width="16.90625" height="24"><div xmlns="http://www.w3.org/1999/xhtml" style="display: table-cell; white-space: nowrap; line-height: 1.5; max-width: 117px; text-align: start;"><span class="nodeLabel "><p>int</p></span></div></foreignObject></g><g class="label attribute-name" transform="translate(-29.359375, 73.5)" style=""><foreignObject width="87.15625" height="24"><div xmlns="http://www.w3.org/1999/xhtml" style="display: table-cell; white-space: nowrap; line-height: 1.5; max-width: 187px; text-align: start;"><span class="nodeLabel "><p>customer_id</p></span></div></foreignObject></g><g class="label attribute-keys" transform="translate(88.15625, 73.5)" style=""><foreignObject width="20.453125" height="24"><div xmlns="http://www.w3.org/1999/xhtml" style="display: table-cell; white-space: nowrap; line-height: 1.5; max-width: 121px; text-align: start;"><span class="nodeLabel "><p>FK</p></span></div></foreignObject></g><g class="label attribute-comment" transform="translate(134.5, 73.5)" style=""><foreignObject width="0" height="0"><div xmlns="http://www.w3.org/1999/xhtml" style="display: table-cell; white-space: nowrap; line-height: 1.5; max-width: 100px; text-align: start;"><span class="nodeLabel "></span></div></foreignObject></g><g class="divider"><path d="M-122 -64.12505 L-122 -64.12495 L122 -64.12495 L122 -64.12505" stroke="none" stroke-width="0" fill="#ECECFF" fill-rule="evenodd"/><path d="M-122 -64.12505 C-122 -64.1250154990185, -122 -64.12498099803702, -122 -64.12495 M-122 -64.12505 C-122 -64.12501515745831, -122 -64.12498031491661, -122 -64.12495 M-122 -64.12495 C-28.101353061156814 -64.12495, 65.79729387768637 -64.12495, 122 -64.12495 M-122 -64.12495 C-51.175836986037865 -64.12495, 19.64832602792427 -64.12495, 122 -64.12495 M122 -64.12495 C122 -64.12497213230981, 122 -64.1249942646196, 122 -64.12505 M122 -64.12495 C122 -64.12498746943118, 122 -64.12502493886235, 122 -64.12505 M122 -64.12505 C33.923574781860296 -64.12505, -54.15285043627941 -64.12505, -122 -64.12505 M122 -64.12505 C38.0092163645418 -64.12505, -45.9815672709164 -64.12505, -122 -64.12505" stroke="#9370DB" stroke-width="1.3" fill="none" stroke-dasharray="0 0"/></g><g class="divider"><path d="M-41.859425 -64.125 L-41.859325 -64.125 L-41.859325 106.875 L-41.859425 106.875" stroke="none" stroke-width="0" fill="#ECECFF" fill-rule="evenodd"/><path d="M-41.859425 -64.125 C-41.859396050958814 -64.125, -41.85936710191763 -64.125, -41.859325 -64.125 M-41.859425 -64.125 C-41.85939125822087 -64.125, -41.85935751644173 -64.125, -41.859325 -64.125 M-41.859325 -64.125 C-41.859325 -14.354764877960463, -41.859325 35.415470244079074, -41.859325 106.875 M-41.859325 -64.125 C-41.859325 -18.367957589271803, -41.859325 27.389084821456393, -41.859325 106.875 M-41.859325 106.875 C-41.85934903650382 106.875, -41.859373073007646 106.875, -41.859425 106.875 M-41.859325 106.875 C-41.859347240062995 106.875, -41.859369480125984 106.875, -41.859425 106.875 M-41.859425 106.875 C-41.859425 51.01314191125736, -41.859425 -4.8487161774852865, -41.859425 -64.125 M-41.859425 106.875 C-41.859425 47.33277093807347, -41.859425 -12.209458123853054, -41.859425 -64.125" stroke="#9370DB" stroke-width="1.3" fill="none" stroke-dasharray="0 0"/></g><g class="divider"><path d="M75.6562 -64.125 L75.6563 -64.125 L75.6563 106.875 L75.6562 106.875" stroke="none" stroke-width="0" fill="#ECECFF" fill-rule="evenodd"/><path d="M75.6562 -64.125 C75.6562366126335 -64.125, 75.656273225267 -64.125, 75.6563 -64.125 M75.6562 -64.125 C75.65622525625487 -64.125, 75.65625051250976 -64.125, 75.6563 -64.125 M75.6563 -64.125 C75.6563 -28.80010533144005, 75.6563 6.524789337119898, 75.6563 106.875 M75.6563 -64.125 C75.6563 3.7288382901853794, 75.6563 71.58267658037076, 75.6563 106.875 M75.6563 106.875 C75.65627969277152 106.875, 75.65625938554305 106.875, 75.6562 106.875 M75.6563 106.875 C75.65626278748195 106.875, 75.65622557496388 106.875, 75.6562 106.875 M75.6562 106.875 C75.6562 71.9999546925643, 75.6562 37.12490938512859, 75.6562 -64.125 M75.6562 106.875 C75.6562 69.21907554444367, 75.6562 31.563151088887338, 75.6562 -64.125" stroke="#9370DB" stroke-width="1.3" fill="none" stroke-dasharray="0 0"/></g><g class="divider"><path d="M-122 -64.12505 L-122 -64.12495 L122 -64.12495 L122 -64.12505" stroke="none" stroke-width="0" fill="#ECECFF" fill-rule="evenodd"/><path d="M-122 -64.12505 C-122 -64.12501481268534, -122 -64.12497962537068, -122 -64.12495 M-122 -64.12505 C-122 -64.1250194850906, -122 -64.12498897018122, -122 -64.12495 M-122 -64.12495 C-67.79716109472565 -64.12495, -13.594322189451304 -64.12495, 122 -64.12495 M-122 -64.12495 C-56.52196308116346 -64.12495, 8.956073837673074 -64.12495, 122 -64.12495 M122 -64.12495 C122 -64.12498703391562, 122 -64.12502406783125, 122 -64.12505 M122 -64.12495 C122 -64.12497709805588, 122 -64.12500419611176, 122 -64.12505 M122 -64.12505 C43.60623736787747 -64.12505, -34.78752526424506 -64.12505, -122 -64.12505 M122 -64.12505 C35.18249242453588 -64.12505, -51.63501515092824 -64.12505, -122 -64.12505" stroke="#9370DB" stroke-width="1.3" fill="none" stroke-dasharray="0 0"/></g></g><g class="node default " id="mermaid-svg-entity-ORDER_ITEM-4" data-look="classic" transform="translate(324.4453125, 851.25)"><g class="outer-path" style=""><path d="M-124.65625 -128.25 L124.65625 -128.25 L124.65625 128.25 L-124.65625 128.25" stroke="none" stroke-width="0" fill="#ECECFF"/><path d="M-124.65625 -128.25 C-68.93825989268268 -128.25, -13.220269785365346 -128.25, 124.65625 -128.25 M-124.65625 -128.25 C-43.41152388141553 -128.25, 37.83320223716893 -128.25, 124.65625 -128.25 M124.65625 -128.25 C124.65625 -47.30575774846487, 124.65625 33.63848450307026, 124.65625 128.25 M124.65625 -128.25 C124.65625 -70.72342776600705, 124.65625 -13.196855532014098, 124.65625 128.25 M124.65625 128.25 C50.28111642113494 128.25, -24.09401715773012 128.25, -124.65625 128.25 M124.65625 128.25 C44.31169614517344 128.25, -36.032857709653115 128.25, -124.65625 128.25 M-124.65625 128.25 C-124.65625 37.344040047164526, -124.65625 -53.56191990567095, -124.65625 -128.25 M-124.65625 128.25 C-124.65625 30.74335868906016, -124.65625 -66.76328262187968, -124.65625 -128.25" stroke="#9370DB" stroke-width="1.3" fill="none" stroke-dasharray="0 0"/></g><g style="" class="row-rect-odd"><path d="M-124.65625 -85.5 L124.65625 -85.5 L124.65625 -42.75 L-124.65625 -42.75" stroke="none" stroke-width="0" fill="hsl(240, 100%, 100%)"/><path d="M-124.65625 -85.5 C-26.225389218898414 -85.5, 72.20547156220317 -85.5, 124.65625 -85.5 M-124.65625 -85.5 C-49.304536052133344 -85.5, 26.047177895733313 -85.5, 124.65625 -85.5 M124.65625 -85.5 C124.65625 -71.21809571898653, 124.65625 -56.936191437973065, 124.65625 -42.75 M124.65625 -85.5 C124.65625 -70.935218664625, 124.65625 -56.37043732925, 124.65625 -42.75 M124.65625 -42.75 C25.37194916116225 -42.75, -73.9123516776755 -42.75, -124.65625 -42.75 M124.65625 -42.75 C58.55077893918465 -42.75, -7.554692121630694 -42.75, -124.65625 -42.75 M-124.65625 -42.75 C-124.65625 -58.72196102455756, -124.65625 -74.69392204911512, -124.65625 -85.5 M-124.65625 -42.75 C-124.65625 -51.521119903459805, -124.65625 -60.2922398069196, -124.65625 -85.5" stroke="#9370DB" stroke-width="1.3" fill="none" stroke-dasharray="0 0"/></g><g style="" class="row-rect-even"><path d="M-124.65625 -42.75 L124.65625 -42.75 L124.65625 0 L-124.65625 0" stroke="none" stroke-width="0" fill="hsl(240, 100%, 97.2745098039%)"/><path d="M-124.65625 -42.75 C-52.83078560194413 -42.75, 18.994678796111742 -42.75, 124.65625 -42.75 M-124.65625 -42.75 C-72.67898378093696 -42.75, -20.701717561873934 -42.75, 124.65625 -42.75 M124.65625 -42.75 C124.65625 -33.453039100246514, 124.65625 -24.15607820049302, 124.65625 0 M124.65625 -42.75 C124.65625 -29.120404020355725, 124.65625 -15.49080804071145, 124.65625 0 M124.65625 0 C27.198107994287867 0, -70.26003401142427 0, -124.65625 0 M124.65625 0 C65.31564211857298 0, 5.975034237145948 0, -124.65625 0 M-124.65625 0 C-124.65625 -15.560324689707155, -124.65625 -31.12064937941431, -124.65625 -42.75 M-124.65625 0 C-124.65625 -11.037348719800828, -124.65625 -22.074697439601657, -124.65625 -42.75" stroke="#9370DB" stroke-width="1.3" fill="none" stroke-dasharray="0 0"/></g><g style="" class="row-rect-odd"><path d="M-124.65625 0 L124.65625 0 L124.65625 42.75 L-124.65625 42.75" stroke="none" stroke-width="0" fill="hsl(240, 100%, 100%)"/><path d="M-124.65625 0 C-32.701253478934916 0, 59.25374304213017 0, 124.65625 0 M-124.65625 0 C-52.473259451917 0, 19.709731096165996 0, 124.65625 0 M124.65625 0 C124.65625 9.899006784274754, 124.65625 19.798013568549507, 124.65625 42.75 M124.65625 0 C124.65625 14.618873435887648, 124.65625 29.237746871775297, 124.65625 42.75 M124.65625 42.75 C55.478703419905884 42.75, -13.698843160188233 42.75, -124.65625 42.75 M124.65625 42.75 C55.63238534447156 42.75, -13.391479311056884 42.75, -124.65625 42.75 M-124.65625 42.75 C-124.65625 29.47584580791254, -124.65625 16.201691615825077, -124.65625 0 M-124.65625 42.75 C-124.65625 33.24351378311951, -124.65625 23.737027566239018, -124.65625 0" stroke="#9370DB" stroke-width="1.3" fill="none" stroke-dasharray="0 0"/></g><g style="" class="row-rect-even"><path d="M-124.65625 42.75 L124.65625 42.75 L124.65625 85.5 L-124.65625 85.5" stroke="none" stroke-width="0" fill="hsl(240, 100%, 97.2745098039%)"/><path d="M-124.65625 42.75 C-26.180179251738295 42.75, 72.29589149652341 42.75, 124.65625 42.75 M-124.65625 42.75 C-45.66529349847872 42.75, 33.325663003042564 42.75, 124.65625 42.75 M124.65625 42.75 C124.65625 54.31345127687667, 124.65625 65.87690255375334, 124.65625 85.5 M124.65625 42.75 C124.65625 58.55318049464617, 124.65625 74.35636098929234, 124.65625 85.5 M124.65625 85.5 C61.960149809231694 85.5, -0.7359503815366111 85.5, -124.65625 85.5 M124.65625 85.5 C53.35141962770659 85.5, -17.95341074458682 85.5, -124.65625 85.5 M-124.65625 85.5 C-124.65625 74.19052211950873, -124.65625 62.881044239017456, -124.65625 42.75 M-124.65625 85.5 C-124.65625 70.45990284568082, -124.65625 55.41980569136163, -124.65625 42.75" stroke="#9370DB" stroke-width="1.3" fill="none" stroke-dasharray="0 0"/></g><g style="" class="row-rect-odd"><path d="M-124.65625 85.5 L124.65625 85.5 L124.65625 128.25 L-124.65625 128.25" stroke="none" stroke-width="0" fill="hsl(240, 100%, 100%)"/><path d="M-124.65625 85.5 C-55.66411839417472 85.5, 13.328013211650557 85.5, 124.65625 85.5 M-124.65625 85.5 C-72.25781288129303 85.5, -19.859375762586083 85.5, 124.65625 85.5 M124.65625 85.5 C124.65625 100.51384031795912, 124.65625 115.52768063591824, 124.65625 128.25 M124.65625 85.5 C124.65625 102.01030014269143, 124.65625 118.52060028538287, 124.65625 128.25 M124.65625 128.25 C37.050856113055644 128.25, -50.55453777388871 128.25, -124.65625 128.25 M124.65625 128.25 C25.23195578099113 128.25, -74.19233843801774 128.25, -124.65625 128.25 M-124.65625 128.25 C-124.65625 114.29769074840038, -124.65625 100.34538149680078, -124.65625 85.5 M-124.65625 128.25 C-124.65625 113.02797899118681, -124.65625 97.80595798237361, -124.65625 85.5" stroke="#9370DB" stroke-width="1.3" fill="none" stroke-dasharray="0 0"/></g><g class="label name" transform="translate(-52.453125, -118.875)" style=""><foreignObject width="104.90625" height="24"><div xmlns="http://www.w3.org/1999/xhtml" style="display: table-cell; white-space: nowrap; line-height: 1.5; max-width: 205px; text-align: start;"><span class="nodeLabel "><p>ORDER_ITEM</p></span></div></foreignObject></g><g class="label attribute-type" transform="translate(-112.15625, -76.125)" style=""><foreignObject width="16.90625" height="24"><div xmlns="http://www.w3.org/1999/xhtml" style="display: table-cell; white-space: nowrap; line-height: 1.5; max-width: 117px; text-align: start;"><span class="nodeLabel "><p>int</p></span></div></foreignObject></g><g class="label attribute-name" transform="translate(-32.015625, -76.125)" style=""><foreignObject width="97.828125" height="24"><div xmlns="http://www.w3.org/1999/xhtml" style="display: table-cell; white-space: nowrap; line-height: 1.5; max-width: 198px; text-align: start;"><span class="nodeLabel "><p>order_item_id</p></span></div></foreignObject></g><g class="label attribute-keys" transform="translate(90.8125, -76.125)" style=""><foreignObject width="21.34375" height="24"><div xmlns="http://www.w3.org/1999/xhtml" style="display: table-cell; white-space: nowrap; line-height: 1.5; max-width: 121px; text-align: start;"><span class="nodeLabel "><p>PK</p></span></div></foreignObject></g><g class="label attribute-comment" transform="translate(137.15625, -76.125)" style=""><foreignObject width="0" height="0"><div xmlns="http://www.w3.org/1999/xhtml" style="display: table-cell; white-space: nowrap; line-height: 1.5; max-width: 100px; text-align: start;"><span class="nodeLabel "></span></div></foreignObject></g><g class="label attribute-type" transform="translate(-112.15625, -33.375)" style=""><foreignObject width="16.90625" height="24"><div xmlns="http://www.w3.org/1999/xhtml" style="display: table-cell; white-space: nowrap; line-height: 1.5; max-width: 117px; text-align: start;"><span class="nodeLabel "><p>int</p></span></div></foreignObject></g><g class="label attribute-name" transform="translate(-32.015625, -33.375)" style=""><foreignObject width="58.703125" height="24"><div xmlns="http://www.w3.org/1999/xhtml" style="display: table-cell; white-space: nowrap; line-height: 1.5; max-width: 159px; text-align: start;"><span class="nodeLabel "><p>order_id</p></span></div></foreignObject></g><g class="label attribute-keys" transform="translate(90.8125, -33.375)" style=""><foreignObject width="20.453125" height="24"><div xmlns="http://www.w3.org/1999/xhtml" style="display: table-cell; white-space: nowrap; line-height: 1.5; max-width: 121px; text-align: start;"><span class="nodeLabel "><p>FK</p></span></div></foreignObject></g><g class="label attribute-comment" transform="translate(137.15625, -33.375)" style=""><foreignObject width="0" height="0"><div xmlns="http://www.w3.org/1999/xhtml" style="display: table-cell; white-space: nowrap; line-height: 1.5; max-width: 100px; text-align: start;"><span class="nodeLabel "></span></div></foreignObject></g><g class="label attribute-type" transform="translate(-112.15625, 9.375)" style=""><foreignObject width="16.90625" height="24"><div xmlns="http://www.w3.org/1999/xhtml" style="display: table-cell; white-space: nowrap; line-height: 1.5; max-width: 117px; text-align: start;"><span class="nodeLabel "><p>int</p></span></div></foreignObject></g><g class="label attribute-name" transform="translate(-32.015625, 9.375)" style=""><foreignObject width="74.71875" height="24"><div xmlns="http://www.w3.org/1999/xhtml" style="display: table-cell; white-space: nowrap; line-height: 1.5; max-width: 169px; text-align: start;"><span class="nodeLabel "><p>product_id</p></span></div></foreignObject></g><g class="label attribute-keys" transform="translate(90.8125, 9.375)" style=""><foreignObject width="20.453125" height="24"><div xmlns="http://www.w3.org/1999/xhtml" style="display: table-cell; white-space: nowrap; line-height: 1.5; max-width: 121px; text-align: start;"><span class="nodeLabel "><p>FK</p></span></div></foreignObject></g><g class="label attribute-comment" transform="translate(137.15625, 9.375)" style=""><foreignObject width="0" height="0"><div xmlns="http://www.w3.org/1999/xhtml" style="display: table-cell; white-space: nowrap; line-height: 1.5; max-width: 100px; text-align: start;"><span class="nodeLabel "></span></div></foreignObject></g><g class="label attribute-type" transform="translate(-112.15625, 52.125)" style=""><foreignObject width="16.90625" height="24"><div xmlns="http://www.w3.org/1999/xhtml" style="display: table-cell; white-space: nowrap; line-height: 1.5; max-width: 117px; text-align: start;"><span class="nodeLabel "><p>int</p></span></div></foreignObject></g><g class="label attribute-name" transform="translate(-32.015625, 52.125)" style=""><foreignObject width="56.046875" height="24"><div xmlns="http://www.w3.org/1999/xhtml" style="display: table-cell; white-space: nowrap; line-height: 1.5; max-width: 152px; text-align: start;"><span class="nodeLabel "><p>quantity</p></span></div></foreignObject></g><g class="label attribute-keys" transform="translate(90.8125, 52.125)" style=""><foreignObject width="0" height="0"><div xmlns="http://www.w3.org/1999/xhtml" style="display: table-cell; white-space: nowrap; line-height: 1.5; max-width: 100px; text-align: start;"><span class="nodeLabel "></span></div></foreignObject></g><g class="label attribute-comment" transform="translate(137.15625, 52.125)" style=""><foreignObject width="0" height="0"><div xmlns="http://www.w3.org/1999/xhtml" style="display: table-cell; white-space: nowrap; line-height: 1.5; max-width: 100px; text-align: start;"><span class="nodeLabel "></span></div></foreignObject></g><g class="label attribute-type" transform="translate(-112.15625, 94.875)" style=""><foreignObject width="55.140625" height="24"><div xmlns="http://www.w3.org/1999/xhtml" style="display: table-cell; white-space: nowrap; line-height: 1.5; max-width: 151px; text-align: start;"><span class="nodeLabel "><p>decimal</p></span></div></foreignObject></g><g class="label attribute-name" transform="translate(-32.015625, 94.875)" style=""><foreignObject width="69.375" height="24"><div xmlns="http://www.w3.org/1999/xhtml" style="display: table-cell; white-space: nowrap; line-height: 1.5; max-width: 165px; text-align: start;"><span class="nodeLabel "><p>unit_price</p></span></div></foreignObject></g><g class="label attribute-keys" transform="translate(90.8125, 94.875)" style=""><foreignObject width="0" height="0"><div xmlns="http://www.w3.org/1999/xhtml" style="display: table-cell; white-space: nowrap; line-height: 1.5; max-width: 100px; text-align: start;"><span class="nodeLabel "></span></div></foreignObject></g><g class="label attribute-comment" transform="translate(137.15625, 94.875)" style=""><foreignObject width="0" height="0"><div xmlns="http://www.w3.org/1999/xhtml" style="display: table-cell; white-space: nowrap; line-height: 1.5; max-width: 100px; text-align: start;"><span class="nodeLabel "></span></div></foreignObject></g><g class="divider"><path d="M-124.65625 -85.50005 L-124.65625 -85.49995 L124.65625 -85.49995 L124.65625 -85.50005" stroke="none" stroke-width="0" fill="#ECECFF" fill-rule="evenodd"/><path d="M-124.65625 -85.50005 C-124.65625 -85.50002018667158, -124.65625 -85.49999037334315, -124.65625 -85.49995 M-124.65625 -85.50005 C-124.65625 -85.50002640191434, -124.65625 -85.50000280382868, -124.65625 -85.49995 M-124.65625 -85.49995 C-41.68968816307091 -85.49995, 41.27687367385818 -85.49995, 124.65625 -85.49995 M-124.65625 -85.49995 C-26.300373240024413 -85.49995, 72.05550351995117 -85.49995, 124.65625 -85.49995 M124.65625 -85.49995 C124.65625 -85.49997750143083, 124.65625 -85.50000500286167, 124.65625 -85.50005 M124.65625 -85.49995 C124.65625 -85.49998189274065, 124.65625 -85.50001378548131, 124.65625 -85.50005 M124.65625 -85.50005 C43.46689029078284 -85.50005, -37.722469418434315 -85.50005, -124.65625 -85.50005 M124.65625 -85.50005 C66.91958158311974 -85.50005, 9.182913166239459 -85.50005, -124.65625 -85.50005" stroke="#9370DB" stroke-width="1.3" fill="none" stroke-dasharray="0 0"/></g><g class="divider"><path d="M-44.515675 -85.5 L-44.515575 -85.5 L-44.515575 128.25 L-44.515675 128.25" stroke="none" stroke-width="0" fill="#ECECFF" fill-rule="evenodd"/><path d="M-44.515675 -85.5 C-44.515643393288286 -85.5, -44.51561178657657 -85.5, -44.515575 -85.5 M-44.515675 -85.5 C-44.51565220426277 -85.5, -44.51562940852554 -85.5, -44.515575 -85.5 M-44.515575 -85.5 C-44.515575 -16.464805346812227, -44.515575 52.570389306375546, -44.515575 128.25 M-44.515575 -85.5 C-44.515575 -28.38372395568137, -44.515575 28.732552088637263, -44.515575 128.25 M-44.515575 128.25 C-44.515597649789335 128.25, -44.51562029957867 128.25, -44.515675 128.25 M-44.515575 128.25 C-44.51559630615509 128.25, -44.51561761231019 128.25, -44.515675 128.25 M-44.515675 128.25 C-44.515675 50.15173422749025, -44.515675 -27.946531545019496, -44.515675 -85.5 M-44.515675 128.25 C-44.515675 79.35066951506113, -44.515675 30.45133903012224, -44.515675 -85.5" stroke="#9370DB" stroke-width="1.3" fill="none" stroke-dasharray="0 0"/></g><g class="divider"><path d="M78.31245 -85.5 L78.31255 -85.5 L78.31255 128.25 L78.31245 128.25" stroke="none" stroke-width="0" fill="#ECECFF" fill-rule="evenodd"/><path d="M78.31245 -85.5 C78.31248519138772 -85.5, 78.31252038277545 -85.5, 78.31255 -85.5 M78.31245 -85.5 C78.31248935767304 -85.5, 78.31252871534609 -85.5, 78.31255 -85.5 M78.31255 -85.5 C78.31255 -0.009994848800047862, 78.31255 85.4800103023999, 78.31255 128.25 M78.31255 -85.5 C78.31255 -28.98511561933922, 78.31255 27.529768761321563, 78.31255 128.25 M78.31255 128.25 C78.31252500943467 128.25, 78.31250001886931 128.25, 78.31245 128.25 M78.31255 128.25 C78.31252737391708 128.25, 78.31250474783415 128.25, 78.31245 128.25 M78.31245 128.25 C78.31245 69.32229114328712, 78.31245 10.39458228657422, 78.31245 -85.5 M78.31245 128.25 C78.31245 82.87356078336865, 78.31245 37.49712156673729, 78.31245 -85.5" stroke="#9370DB" stroke-width="1.3" fill="none" stroke-dasharray="0 0"/></g><g class="divider"><path d="M-124.65625 -85.50005 L-124.65625 -85.49995 L124.65625 -85.49995 L124.65625 -85.50005" stroke="none" stroke-width="0" fill="#ECECFF" fill-rule="evenodd"/><path d="M-124.65625 -85.50005 C-124.65625 -85.50002460377284, -124.65625 -85.49999920754568, -124.65625 -85.49995 M-124.65625 -85.50005 C-124.65625 -85.5000118583235, -124.65625 -85.49997371664702, -124.65625 -85.49995 M-124.65625 -85.49995 C-55.03101903690339 -85.49995, 14.594211926193225 -85.49995, 124.65625 -85.49995 M-124.65625 -85.49995 C-53.845525027304674 -85.49995, 16.96519994539065 -85.49995, 124.65625 -85.49995 M124.65625 -85.49995 C124.65625 -85.49998976402, 124.65625 -85.50002952804002, 124.65625 -85.50005 M124.65625 -85.49995 C124.65625 -85.49998721033315, 124.65625 -85.50002442066629, 124.65625 -85.50005 M124.65625 -85.50005 C62.707191723726964 -85.50005, 0.758133447453929 -85.50005, -124.65625 -85.50005 M124.65625 -85.50005 C49.6273668710479 -85.50005, -25.401516257904206 -85.50005, -124.65625 -85.50005" stroke="#9370DB" stroke-width="1.3" fill="none" stroke-dasharray="0 0"/></g></g></g></g></g><defs><filter id="mermaid-svg-drop-shadow" height="130%" width="130%"><feDropShadow dx="4" dy="4" stdDeviation="0" flood-opacity="0.06" flood-color="#000000"/></filter></defs><defs><filter id="mermaid-svg-drop-shadow-small" height="150%" width="150%"><feDropShadow dx="2" dy="2" stdDeviation="0" flood-opacity="0.06" flood-color="#000000"/></filter></defs></svg>